<?xml version="1.0" encoding="iso-8859-1"?>
<!-- Generator: Adobe Illustrator 19.0.0, SVG Export Plug-In . SVG Version: 6.00 Build 0)  -->
<svg version="1.1" id="Layer_1" xmlns="http://www.w3.org/2000/svg" xmlns:xlink="http://www.w3.org/1999/xlink" x="0px" y="0px"
	 viewBox="0 0 512 512" style="enable-background:new 0 0 512 512;" xml:space="preserve">
<g>
	<path style="fill:#CCD0D2;" d="M467.862,476.69H44.138C19.765,476.69,0,456.925,0,432.552V132.414
		c0-24.373,19.765-44.138,44.138-44.138h423.724c24.373,0,44.138,19.765,44.138,44.138v300.138
		C512,456.925,492.235,476.69,467.862,476.69"/>
	<g>
		<path style="fill:#A1ABAF;" d="M61.793,441.379c-14.627,0-26.483-11.855-26.483-26.483V150.069
			c0-14.627,11.855-26.483,26.483-26.483h388.414c14.627,0,26.483,11.855,26.483,26.483v264.828
			c0,14.627-11.855,26.483-26.483,26.483H61.793z"/>
		<polygon style="fill:#A1ABAF;" points="150.069,88.276 203.034,88.276 203.034,61.793 150.069,61.793 		"/>
		<polygon style="fill:#A1ABAF;" points="308.966,88.276 361.931,88.276 361.931,61.793 308.966,61.793 		"/>
	</g>
	<path style="fill:#CCD0D2;" d="M291.31,0H220.69c-34.074,0-61.793,27.727-61.793,61.793h35.31
		c0-14.601,11.882-26.483,26.483-26.483h70.621c14.601,0,26.483,11.882,26.483,26.483h35.31C353.103,27.727,325.385,0,291.31,0"/>
	<g>
		<path style="fill:#A1ABAF;" d="M83.862,512L83.862,512c-7.786,0-14.566-5.297-16.455-12.844l-5.614-22.466h44.138l-5.614,22.466
			C98.428,506.703,91.648,512,83.862,512"/>
		<path style="fill:#A1ABAF;" d="M428.138,512L428.138,512c7.786,0,14.566-5.297,16.455-12.844l5.614-22.466h-44.138l5.614,22.466
			C413.572,506.703,420.352,512,428.138,512"/>
	</g>
	<g>
		<polygon style="fill:#CCD0D2;" points="35.31,185.379 476.69,185.379 476.69,167.724 35.31,167.724 		"/>
		<polygon style="fill:#CCD0D2;" points="35.31,256 476.69,256 476.69,238.345 35.31,238.345 		"/>
		<polygon style="fill:#CCD0D2;" points="35.31,326.621 476.69,326.621 476.69,308.966 35.31,308.966 		"/>
		<polygon style="fill:#CCD0D2;" points="35.31,397.241 476.69,397.241 476.69,379.586 35.31,379.586 		"/>
	</g>
	<g>
		<polygon style="fill:#A1ABAF;" points="70.621,88.276 105.931,88.276 105.931,61.793 70.621,61.793 		"/>
		<polygon style="fill:#A1ABAF;" points="406.069,88.276 441.379,88.276 441.379,61.793 406.069,61.793 		"/>
	</g>
</g>
<g>
</g>
<g>
</g>
<g>
</g>
<g>
</g>
<g>
</g>
<g>
</g>
<g>
</g>
<g>
</g>
<g>
</g>
<g>
</g>
<g>
</g>
<g>
</g>
<g>
</g>
<g>
</g>
<g>
</g>
</svg>
