<?xml version="1.0" encoding="iso-8859-1"?>
<!-- Generator: Adobe Illustrator 19.0.0, SVG Export Plug-In . SVG Version: 6.00 Build 0)  -->
<svg version="1.1" id="Layer_1" xmlns="http://www.w3.org/2000/svg" xmlns:xlink="http://www.w3.org/1999/xlink" x="0px" y="0px"
	 viewBox="0 0 512 512" style="enable-background:new 0 0 512 512;" xml:space="preserve">
<g>
	<path id="SVGCleanerId_0" style="fill:#BFA380;" d="M300.138,317.793h-88.276c-9.754,0-17.655-7.901-17.655-17.655v-35.31
		c0-9.754,7.901-17.655,17.655-17.655h88.276c9.754,0,17.655,7.901,17.655,17.655v35.31
		C317.793,309.892,309.892,317.793,300.138,317.793"/>
	<g>
		<path id="SVGCleanerId_0_1_" style="fill:#BFA380;" d="M300.138,317.793h-88.276c-9.754,0-17.655-7.901-17.655-17.655v-35.31
			c0-9.754,7.901-17.655,17.655-17.655h88.276c9.754,0,17.655,7.901,17.655,17.655v35.31
			C317.793,309.892,309.892,317.793,300.138,317.793"/>
	</g>
	<path style="fill:#724530;" d="M494.345,105.931H17.655C7.901,105.931,0,113.832,0,123.586v150.069
		c0,4.873,3.955,8.828,8.828,8.828h185.379v-17.655c0-9.754,7.901-17.655,17.655-17.655h88.276c9.754,0,17.655,7.901,17.655,17.655
		v17.655h185.379c4.873,0,8.828-3.955,8.828-8.828V123.586C512,113.832,504.099,105.931,494.345,105.931"/>
	<path style="fill:#562F1F;" d="M317.793,282.483v17.655c0,9.746-7.901,17.655-17.655,17.655h-88.276
		c-9.754,0-17.655-7.91-17.655-17.655v-17.655H17.655v211.862c0,9.746,7.901,17.655,17.655,17.655H476.69
		c9.754,0,17.655-7.91,17.655-17.655V282.483H317.793z"/>
	<g>
		<path style="fill:#BFA380;" d="M17.655,105.931C7.901,105.931,0,113.832,0,123.586v26.483h26.483
			c9.754,0,17.655-7.91,17.655-17.655v-26.483H17.655z"/>
		<path style="fill:#BFA380;" d="M512,123.586c0-9.754-7.901-17.655-17.655-17.655h-26.483v26.483
			c0,9.754,7.91,17.655,17.655,17.655H512V123.586z"/>
		<path style="fill:#BFA380;" d="M476.69,512c9.754,0,17.655-7.901,17.655-17.655v-26.483h-26.483
			c-9.754,0-17.655,7.91-17.655,17.655V512H476.69z"/>
		<path style="fill:#BFA380;" d="M17.655,494.345c0,9.754,7.901,17.655,17.655,17.655h26.483v-26.483
			c0-9.754-7.91-17.655-17.655-17.655H17.655V494.345z"/>
	</g>
	<path style="fill:#67544D;" d="M308.966,70.621L308.966,70.621c-34.383-11.458-71.548-11.458-105.931,0l0,0V0l0,0
		c34.383,11.458,71.548,11.458,105.931,0l0,0V70.621z"/>
	<g>
		<path style="fill:#CCD0D2;" d="M150.069,105.931h-35.31c0-48.675,39.601-88.276,88.276-88.276v35.31
			C173.824,52.966,150.069,76.721,150.069,105.931"/>
		<path style="fill:#CCD0D2;" d="M308.966,52.966v-35.31c48.675,0,88.276,39.601,88.276,88.276h-35.31
			C361.931,76.721,338.176,52.966,308.966,52.966"/>
	</g>
</g>
<g>
</g>
<g>
</g>
<g>
</g>
<g>
</g>
<g>
</g>
<g>
</g>
<g>
</g>
<g>
</g>
<g>
</g>
<g>
</g>
<g>
</g>
<g>
</g>
<g>
</g>
<g>
</g>
<g>
</g>
</svg>
