<?xml version="1.0" encoding="iso-8859-1"?>
<!-- Generator: Adobe Illustrator 19.0.0, SVG Export Plug-In . SVG Version: 6.00 Build 0)  -->
<svg version="1.1" id="Layer_1" xmlns="http://www.w3.org/2000/svg" xmlns:xlink="http://www.w3.org/1999/xlink" x="0px" y="0px"
	 viewBox="0 0 512 512" style="enable-background:new 0 0 512 512;" xml:space="preserve">
<g>
	<path style="fill:#724530;" d="M310.857,370.286v-27.429c0-5.047,4.096-9.143,9.143-9.143h100.571v-192
		c0-25.243-20.471-45.714-45.714-45.714H45.714C20.471,96,0,116.471,0,141.714v219.429c0,25.243,20.471,45.714,45.714,45.714
		h265.143V370.286z"/>
	<g>
		<polygon style="fill:#8C5236;" points="73.143,406.857 91.429,406.857 91.429,141.714 73.143,141.714 		"/>
		<polygon style="fill:#8C5236;" points="338.286,333.714 356.571,333.714 356.571,141.714 338.286,141.714 		"/>
	</g>
	<path style="fill:#E6E7E8;" d="M411.429,480h-36.571c-35.346,0-64-28.654-64-64v-73.143c0-5.047,4.096-9.143,9.143-9.143h146.286
		c5.047,0,9.143,4.096,9.143,9.143V416C475.429,451.346,446.775,480,411.429,480"/>
	<g>
		<path style="fill:#B8BDC1;" d="M374.857,452.571c-20.169,0-36.571-16.402-36.571-36.571c0-5.056,4.096-9.143,9.143-9.143
			s9.143,4.087,9.143,9.143c0,10.085,8.201,18.286,18.286,18.286c5.047,0,9.143,4.087,9.143,9.143
			C384,448.485,379.904,452.571,374.857,452.571"/>
		<path style="fill:#B8BDC1;" d="M451.607,507.429H334.679c-20.59,0-39.826-10.295-51.246-27.429h219.429
			C491.433,497.134,472.206,507.429,451.607,507.429"/>
		<path style="fill:#B8BDC1;" d="M475.429,361.143v45.001V416c0,3.109-0.293,6.153-0.731,9.143h0.731
			c20.215,0,36.571-16.357,36.571-36.571v-27.429H475.429z"/>
	</g>
	<g>
		<polygon style="fill:#CCD0D2;" points="109.714,96 164.571,96 164.571,68.571 109.714,68.571 		"/>
		<polygon style="fill:#CCD0D2;" points="256,96 310.857,96 310.857,68.571 256,68.571 		"/>
	</g>
	<path style="fill:#67544D;" d="M237.714,4.571h-54.857c-35.291,0-64,28.718-64,64h36.571c0-15.122,12.306-27.429,27.429-27.429
		h54.857c15.122,0,27.429,12.306,27.429,27.429h36.571C301.714,33.289,273.006,4.571,237.714,4.571"/>
	<g>
		<polygon style="fill:#BFA380;" points="64,141.714 100.571,141.714 100.571,96 64,96 		"/>
		<polygon style="fill:#BFA380;" points="329.143,141.714 365.714,141.714 365.714,96 329.143,96 		"/>
	</g>
</g>
<g>
</g>
<g>
</g>
<g>
</g>
<g>
</g>
<g>
</g>
<g>
</g>
<g>
</g>
<g>
</g>
<g>
</g>
<g>
</g>
<g>
</g>
<g>
</g>
<g>
</g>
<g>
</g>
<g>
</g>
</svg>
