<?xml version="1.0" encoding="iso-8859-1"?>
<!-- Generator: Adobe Illustrator 19.0.0, SVG Export Plug-In . SVG Version: 6.00 Build 0)  -->
<svg version="1.1" id="Layer_1" xmlns="http://www.w3.org/2000/svg" xmlns:xlink="http://www.w3.org/1999/xlink" x="0px" y="0px"
	 viewBox="0 0 512 512" style="enable-background:new 0 0 512 512;" xml:space="preserve">
<g>
	<path style="fill:#E8EDEE;" d="M361.931,494.345H150.069c0-19.5,15.81-35.31,35.31-35.31h141.241
		C346.121,459.034,361.931,474.845,361.931,494.345"/>
	<polygon style="fill:#B0B6BB;" points="317.793,459.034 194.207,459.034 211.862,388.414 300.138,388.414 	"/>
	<path style="fill:#38454F;" d="M512,317.793H0V48.552c0-17.064,13.833-30.897,30.897-30.897h450.207
		c17.064,0,30.897,13.833,30.897,30.897V317.793z"/>
	<path style="fill:#E8EDEE;" d="M481.103,388.414H30.897C13.833,388.414,0,374.581,0,357.517v-39.724h512v39.724
		C512,374.581,498.167,388.414,481.103,388.414"/>
	<polygon style="fill:#ECBA16;" points="229.517,114.759 282.483,114.759 282.483,61.793 229.517,61.793 	"/>
	<g>
		<polygon style="fill:#25AE88;" points="247.172,203.034 264.828,203.034 264.828,114.759 247.172,114.759 		"/>
		<polygon style="fill:#25AE88;" points="397.241,209.427 379.586,209.427 379.586,176.553 132.414,176.553 132.414,209.427 
			114.759,209.427 114.759,158.897 397.241,158.897 		"/>
	</g>
	<g>
		<path style="fill:#ECBA16;" d="M158.897,238.345c0,19.5-15.81,35.31-35.31,35.31s-35.31-15.81-35.31-35.31
			s15.81-35.31,35.31-35.31S158.897,218.845,158.897,238.345"/>
		<path style="fill:#ECBA16;" d="M291.31,238.345c0,19.5-15.81,35.31-35.31,35.31s-35.31-15.81-35.31-35.31s15.81-35.31,35.31-35.31
			S291.31,218.845,291.31,238.345"/>
		<path style="fill:#ECBA16;" d="M423.724,238.345c0,19.5-15.81,35.31-35.31,35.31c-19.5,0-35.31-15.81-35.31-35.31
			s15.81-35.31,35.31-35.31C407.914,203.034,423.724,218.845,423.724,238.345"/>
	</g>
</g>
<g>
</g>
<g>
</g>
<g>
</g>
<g>
</g>
<g>
</g>
<g>
</g>
<g>
</g>
<g>
</g>
<g>
</g>
<g>
</g>
<g>
</g>
<g>
</g>
<g>
</g>
<g>
</g>
<g>
</g>
</svg>
