<?xml version="1.0" encoding="iso-8859-1"?>
<!-- Generator: Adobe Illustrator 19.0.0, SVG Export Plug-In . SVG Version: 6.00 Build 0)  -->
<svg version="1.1" id="Layer_1" xmlns="http://www.w3.org/2000/svg" xmlns:xlink="http://www.w3.org/1999/xlink" x="0px" y="0px"
	 viewBox="0 0 511.847 511.847" style="enable-background:new 0 0 511.847 511.847;" xml:space="preserve">
<g>
	<polygon style="fill:#A31C09;" points="62.424,346.367 387.015,21.777 493.122,127.893 168.541,452.483 	"/>
	<g>
		<path style="fill:#CE3929;" d="M486.883,121.654l-93.634-93.634l24.744-24.735c0.124-0.132,0.327-0.132,0.45,0l93.405,93.405
			L486.883,121.654z"/>
		<path style="fill:#CE3929;" d="M68.666,489.934l4.334-4.334c21.204-21.204,49.964-33.121,79.951-33.121h15.59L62.425,346.371
			l1.448,15.925c3.028,33.421-8.934,66.463-32.662,90.183l0,0L68.666,489.934z"/>
	</g>
	<polygon style="fill:#A31C09;" points="37.455,458.724 62.42,483.689 37.455,508.662 0,496.18 	"/>
	<g>
		<path style="fill:#CE3929;" d="M156.055,323.986c-2.26,0-4.52-0.865-6.241-2.586c-3.452-3.452-3.452-9.031,0-12.482
			L362.038,96.685c3.452-3.452,9.039-3.452,12.491,0c3.443,3.452,3.443,9.031,0,12.482L162.296,321.4
			C160.575,323.121,158.315,323.986,156.055,323.986"/>
		<path style="fill:#CE3929;" d="M199.749,367.677c-2.26,0-4.52-0.865-6.241-2.586c-3.452-3.452-3.452-9.031,0-12.482
			l212.224-212.224c3.452-3.452,9.039-3.452,12.491,0c3.443,3.452,3.443,9.031,0,12.482L205.99,365.09
			C204.269,366.812,202.009,367.677,199.749,367.677"/>
	</g>
</g>
<g>
</g>
<g>
</g>
<g>
</g>
<g>
</g>
<g>
</g>
<g>
</g>
<g>
</g>
<g>
</g>
<g>
</g>
<g>
</g>
<g>
</g>
<g>
</g>
<g>
</g>
<g>
</g>
<g>
</g>
</svg>
