<?xml version="1.0" encoding="iso-8859-1"?>
<!-- Generator: Adobe Illustrator 19.0.0, SVG Export Plug-In . SVG Version: 6.00 Build 0)  -->
<svg version="1.1" id="Layer_1" xmlns="http://www.w3.org/2000/svg" xmlns:xlink="http://www.w3.org/1999/xlink" x="0px" y="0px"
	 viewBox="0 0 505.714 505.714" style="enable-background:new 0 0 505.714 505.714;" xml:space="preserve">
<g>
	<path style="fill:#7383BF;" d="M438.219,162.086c-2.222,0-4.443-0.85-6.135-2.543l-18.415-18.415
		c-3.384-3.393-3.384-8.878,0-12.271c3.393-3.393,8.886-3.393,12.271,0l18.415,18.415c3.393,3.393,3.393,8.878,0,12.271
		C442.662,161.236,440.441,162.086,438.219,162.086"/>
	<polygon style="fill:#434C6D;" points="82.316,374.311 413.675,42.952 462.767,92.043 131.407,423.402 	"/>
	<g>
		<path style="fill:#7383BF;" d="M8.681,505.714c-2.222,0-4.443-0.85-6.135-2.543c-3.393-3.393-3.393-8.878,0-12.271l12.271-12.271
			c3.393-3.393,8.878-3.393,12.271,0c3.393,3.393,3.393,8.878,0,12.271l-12.271,12.271C13.124,504.863,10.902,505.714,8.681,505.714
			"/>
		<polygon style="fill:#7383BF;" points="481.172,61.362 456.63,85.903 419.584,48.866 444.134,24.324 		"/>
		<polygon style="fill:#7383BF;" points="315.493,312.948 297.087,294.542 468.902,122.727 487.308,141.133 		"/>
		<polygon style="fill:#7383BF;" points="94.588,460.219 45.497,411.127 82.318,374.315 131.409,423.398 		"/>
	</g>
	<g>
		<path style="fill:#434C6D;" d="M51.635,417.264L51.635,417.264l36.821,36.821l0,0c-11.42,19.031-31.996,30.677-54.194,30.677
			H20.95V471.45C20.95,449.251,32.604,428.685,51.635,417.264"/>
		<polygon style="fill:#434C6D;" points="481.172,61.362 444.351,24.541 468.901,0 505.713,36.821 		"/>
	</g>
	<polygon style="fill:#7383BF;" points="155.951,349.765 131.41,325.224 364.587,92.047 389.128,116.588 	"/>
</g>
<g>
</g>
<g>
</g>
<g>
</g>
<g>
</g>
<g>
</g>
<g>
</g>
<g>
</g>
<g>
</g>
<g>
</g>
<g>
</g>
<g>
</g>
<g>
</g>
<g>
</g>
<g>
</g>
<g>
</g>
</svg>
