<?xml version="1.0" encoding="iso-8859-1"?>
<!-- Generator: Adobe Illustrator 19.0.0, SVG Export Plug-In . SVG Version: 6.00 Build 0)  -->
<svg version="1.1" id="Layer_1" xmlns="http://www.w3.org/2000/svg" xmlns:xlink="http://www.w3.org/1999/xlink" x="0px" y="0px"
	 viewBox="0 0 512.164 512.164" style="enable-background:new 0 0 512.164 512.164;" xml:space="preserve">
<g transform="translate(0 -1)">
	<polygon style="fill:#D9DBE8;" points="49.938,513.139 0,513.139 0,463.201 212.233,250.977 262.17,300.906 	"/>
	<g>
		<path style="fill:#F0CE49;" d="M374.524,413.266L374.524,413.266L99.871,138.614c57.309-42.982,137.498-37.279,188.151,13.374
			l73.128,73.128C411.802,275.768,417.505,355.958,374.524,413.266"/>
		<path style="fill:#F0CE49;" d="M362.02,1.139l149.592,150.378c3.293-32.794-8.033-79.81-37.217-112.772
			C447.992,8.916,417.007-0.123,362.02,1.139"/>
	</g>
	<path style="fill:#CEA217;" d="M288.022,151.987l73.128,73.128c6.365,6.365,12.006,13.188,16.949,20.383l89.971-138.01
		l-62.42-62.42l-138.002,89.98C274.834,139.982,281.657,145.623,288.022,151.987"/>
</g>
<g>
</g>
<g>
</g>
<g>
</g>
<g>
</g>
<g>
</g>
<g>
</g>
<g>
</g>
<g>
</g>
<g>
</g>
<g>
</g>
<g>
</g>
<g>
</g>
<g>
</g>
<g>
</g>
<g>
</g>
</svg>
