<?xml version="1.0" encoding="iso-8859-1"?>
<!-- Generator: Adobe Illustrator 19.0.0, SVG Export Plug-In . SVG Version: 6.00 Build 0)  -->
<svg version="1.1" id="Layer_1" xmlns="http://www.w3.org/2000/svg" xmlns:xlink="http://www.w3.org/1999/xlink" x="0px" y="0px"
	 viewBox="0 0 512.004 512.004" style="enable-background:new 0 0 512.004 512.004;" xml:space="preserve">
<g>
	<path style="fill:#C9C6B8;" d="M512.004,150.071c0,68.255-114.617,123.586-256,123.586s-256-55.331-256-123.586
		s114.617-123.586,256-123.586S512.004,81.816,512.004,150.071"/>
	<path style="fill:#ECE8D8;" d="M385.006,287.702l-18.123,12.085c-6.55,4.37-6.55,14.001,0,18.37l25.353,16.896
		c6.585,4.387,6.585,14.062,0,18.45l-25.503,17.002c-6.479,4.317-6.479,13.85,0,18.167l25.812,17.214
		c6.435,4.281,6.435,13.745,0,18.026l-26.262,17.514c-6.268,4.175-6.268,13.391,0,17.567l18.662,12.438
		c6.329,4.22,3.337,14.089-4.273,14.089H256c-141.383,0-256-55.331-256-123.586V150.071c0,68.255,114.617,123.586,256,123.586
		h124.751C388.343,273.657,391.318,283.491,385.006,287.702"/>
	<path style="fill:#C9C6B8;" d="M256.004,273.657h124.751c7.583,0,10.558,9.834,4.255,14.045l-18.123,12.076
		c-6.559,4.37-6.559,14.001,0,18.37l25.353,16.905c6.577,4.387,6.577,14.062,0,18.45l-25.503,17.002
		c-6.479,4.317-6.479,13.85,0,18.167l25.812,17.214c6.435,4.281,6.435,13.745,0,18.026l-26.262,17.514
		c-6.268,4.175-6.268,13.391,0,17.567l15.748,10.496c77.577-21.23,129.969-61.422,129.969-107.555V150.071
		C512.004,218.326,397.386,273.657,256.004,273.657"/>
	<path style="fill:#ECE8D8;" d="M353.107,150.071c0,24.373-43.476,44.138-97.103,44.138S158.9,174.444,158.9,150.071
		s43.476-44.138,97.103-44.138S353.107,125.698,353.107,150.071"/>
</g>
<g>
</g>
<g>
</g>
<g>
</g>
<g>
</g>
<g>
</g>
<g>
</g>
<g>
</g>
<g>
</g>
<g>
</g>
<g>
</g>
<g>
</g>
<g>
</g>
<g>
</g>
<g>
</g>
<g>
</g>
</svg>
