<?xml version="1.0" encoding="iso-8859-1"?>
<!-- Generator: Adobe Illustrator 19.0.0, SVG Export Plug-In . SVG Version: 6.00 Build 0)  -->
<svg version="1.1" id="Layer_1" xmlns="http://www.w3.org/2000/svg" xmlns:xlink="http://www.w3.org/1999/xlink" x="0px" y="0px"
	 viewBox="0 0 512 512" style="enable-background:new 0 0 512 512;" xml:space="preserve">
<g>
	<path style="fill:#38454F;" d="M185.379,384v17.655h141.241V384H476.69V101.517c0-9.754-7.901-17.655-17.655-17.655H52.966
		c-9.754,0-17.655,7.901-17.655,17.655V384H185.379z"/>
	<path style="fill:#B0B6BB;" d="M326.621,384v17.655H185.379V384H0v26.483c0,9.754,7.901,17.655,17.655,17.655h476.69
		c9.754,0,17.655-7.901,17.655-17.655V384H326.621z"/>
	<polygon style="fill:#546A79;" points="52.966,366.345 459.034,366.345 459.034,101.517 52.966,101.517 	"/>
	<g>
		<path style="fill:#EA6148;" d="M247.172,198.621c-2.26,0-4.52-0.865-6.241-2.586c-3.452-3.452-3.452-9.031,0-12.482l35.31-35.31
			c3.452-3.452,9.031-3.452,12.482,0c3.452,3.452,3.452,9.031,0,12.482l-35.31,35.31
			C251.692,197.756,249.432,198.621,247.172,198.621"/>
		<path style="fill:#EA6148;" d="M282.483,198.621c-2.26,0-4.52-0.865-6.241-2.586l-35.31-35.31c-3.452-3.452-3.452-9.031,0-12.482
			s9.031-3.452,12.482,0l35.31,35.31c3.452,3.452,3.452,9.031,0,12.482C287.003,197.756,284.743,198.621,282.483,198.621"/>
		<path style="fill:#EA6148;" d="M397.241,331.034c-2.26,0-4.52-0.865-6.241-2.586c-3.452-3.452-3.452-9.031,0-12.482l35.31-35.31
			c3.452-3.452,9.031-3.452,12.482,0c3.452,3.452,3.452,9.031,0,12.482l-35.31,35.31
			C401.761,330.169,399.501,331.034,397.241,331.034"/>
		<path style="fill:#EA6148;" d="M432.552,331.034c-2.26,0-4.52-0.865-6.241-2.586L391,293.138c-3.452-3.452-3.452-9.031,0-12.482
			c3.452-3.452,9.031-3.452,12.482,0l35.31,35.31c3.452,3.452,3.452,9.031,0,12.482
			C437.071,330.169,434.812,331.034,432.552,331.034"/>
	</g>
	<path style="fill:#ECBA16;" d="M447.62,165.897l-26.474-26.474c-0.821-0.821-1.792-1.465-2.878-1.916
		c-2.154-0.892-4.59-0.892-6.744,0c-1.086,0.45-2.066,1.095-2.878,1.916l-26.474,26.474c-3.452,3.452-3.452,9.031,0,12.482
		c1.721,1.721,3.981,2.586,6.241,2.586s4.52-0.865,6.241-2.586l11.414-11.414v22.828c0,19.474-15.837,35.31-35.31,35.31h-61.793
		c-29.21,0-52.966,23.755-52.966,52.966c0,4.873,3.946,8.828,8.828,8.828s8.828-3.955,8.828-8.828
		c0-19.474,15.837-35.31,35.31-35.31h61.793c29.21,0,52.966-23.755,52.966-52.966v-22.828l11.414,11.414
		c1.721,1.721,3.981,2.586,6.241,2.586s4.52-0.865,6.241-2.586C451.072,174.927,451.072,169.348,447.62,165.897"/>
	<g>
		<path style="fill:#DD691D;" d="M105.931,154.483H79.448c-4.882,0-8.828-3.955-8.828-8.828c0-4.873,3.946-8.828,8.828-8.828h26.483
			c4.882,0,8.828,3.955,8.828,8.828C114.759,150.528,110.813,154.483,105.931,154.483"/>
		<path style="fill:#DD691D;" d="M203.034,154.483h-61.793c-4.882,0-8.828-3.955-8.828-8.828c0-4.873,3.946-8.828,8.828-8.828
			h61.793c4.882,0,8.828,3.955,8.828,8.828C211.862,150.528,207.916,154.483,203.034,154.483"/>
		<path style="fill:#DD691D;" d="M123.586,189.793H79.448c-4.882,0-8.828-3.955-8.828-8.828s3.946-8.828,8.828-8.828h44.138
			c4.882,0,8.828,3.955,8.828,8.828S128.468,189.793,123.586,189.793"/>
		<path style="fill:#DD691D;" d="M167.724,189.793h-8.828c-4.882,0-8.828-3.955-8.828-8.828s3.946-8.828,8.828-8.828h8.828
			c4.882,0,8.828,3.955,8.828,8.828S172.606,189.793,167.724,189.793"/>
		<path style="fill:#DD691D;" d="M203.034,189.793c-2.392,0-4.599-0.971-6.268-2.56c-0.794-0.883-1.412-1.854-1.854-2.913
			c-0.441-1.059-0.706-2.207-0.706-3.354s0.265-2.295,0.706-3.354s1.059-2.03,1.854-2.913c3.266-3.266,9.269-3.266,12.535,0
			c0.794,0.883,1.412,1.854,1.854,2.913c0.441,1.059,0.706,2.207,0.706,3.354s-0.265,2.295-0.706,3.354
			c-0.441,1.059-1.059,2.03-1.854,2.913C207.625,188.822,205.33,189.793,203.034,189.793"/>
		<path style="fill:#DD691D;" d="M105.931,225.103H79.448c-4.882,0-8.828-3.955-8.828-8.828c0-4.873,3.946-8.828,8.828-8.828h26.483
			c4.882,0,8.828,3.955,8.828,8.828C114.759,221.149,110.813,225.103,105.931,225.103"/>
		<path style="fill:#DD691D;" d="M203.034,225.103h-61.793c-4.882,0-8.828-3.955-8.828-8.828c0-4.873,3.946-8.828,8.828-8.828
			h61.793c4.882,0,8.828,3.955,8.828,8.828C211.862,221.149,207.916,225.103,203.034,225.103"/>
		<path style="fill:#DD691D;" d="M123.586,260.414H79.448c-4.882,0-8.828-3.955-8.828-8.828s3.946-8.828,8.828-8.828h44.138
			c4.882,0,8.828,3.955,8.828,8.828S128.468,260.414,123.586,260.414"/>
		<path style="fill:#DD691D;" d="M167.724,260.414h-8.828c-4.882,0-8.828-3.955-8.828-8.828s3.946-8.828,8.828-8.828h8.828
			c4.882,0,8.828,3.955,8.828,8.828S172.606,260.414,167.724,260.414"/>
		<path style="fill:#DD691D;" d="M203.034,260.414c-2.392,0-4.599-0.971-6.268-2.56c-0.794-0.883-1.412-1.854-1.854-2.913
			c-0.441-1.059-0.706-2.207-0.706-3.354c0-1.148,0.265-2.295,0.706-3.354c0.441-1.059,1.059-2.03,1.854-2.913
			c3.266-3.266,9.269-3.266,12.535,0c0.794,0.883,1.412,1.854,1.854,2.913c0.441,1.059,0.706,2.207,0.706,3.354
			c0,1.148-0.265,2.295-0.706,3.354c-0.441,1.059-1.059,2.03-1.854,2.913C207.625,259.443,205.33,260.414,203.034,260.414"/>
		<path style="fill:#DD691D;" d="M105.931,295.724H79.448c-4.882,0-8.828-3.955-8.828-8.828s3.946-8.828,8.828-8.828h26.483
			c4.882,0,8.828,3.955,8.828,8.828S110.813,295.724,105.931,295.724"/>
		<path style="fill:#DD691D;" d="M203.034,295.724h-61.793c-4.882,0-8.828-3.955-8.828-8.828s3.946-8.828,8.828-8.828h61.793
			c4.882,0,8.828,3.955,8.828,8.828S207.916,295.724,203.034,295.724"/>
		<path style="fill:#DD691D;" d="M123.586,331.034H79.448c-4.882,0-8.828-3.955-8.828-8.828c0-4.873,3.946-8.828,8.828-8.828h44.138
			c4.882,0,8.828,3.955,8.828,8.828C132.414,327.08,128.468,331.034,123.586,331.034"/>
		<path style="fill:#DD691D;" d="M167.724,331.034h-8.828c-4.882,0-8.828-3.955-8.828-8.828c0-4.873,3.946-8.828,8.828-8.828h8.828
			c4.882,0,8.828,3.955,8.828,8.828C176.552,327.08,172.606,331.034,167.724,331.034"/>
		<path style="fill:#DD691D;" d="M203.034,331.034c-2.392,0-4.599-0.971-6.268-2.56c-0.353-0.441-0.706-0.883-1.059-1.324
			c-0.353-0.53-0.618-1.059-0.794-1.589c-0.265-0.53-0.441-1.059-0.53-1.589c-0.088-0.618-0.177-1.148-0.177-1.766
			c0-1.148,0.265-2.295,0.706-3.354c0.441-1.148,1.059-2.03,1.854-2.913c3.266-3.266,9.269-3.266,12.535,0
			c0.794,0.883,1.412,1.766,1.854,2.913c0.441,1.059,0.706,2.207,0.706,3.354c0,0.618-0.088,1.148-0.185,1.766
			c-0.079,0.53-0.256,1.059-0.521,1.589c-0.185,0.53-0.441,1.059-0.794,1.589c-0.353,0.441-0.706,0.883-1.059,1.324
			C207.625,330.063,205.33,331.034,203.034,331.034"/>
	</g>
	<path style="fill:#25AE88;" d="M291.31,304.552c0,14.627-11.855,26.483-26.483,26.483c-14.627,0-26.483-11.855-26.483-26.483
		c0-14.627,11.855-26.483,26.483-26.483C279.455,278.069,291.31,289.924,291.31,304.552"/>
</g>
<g>
</g>
<g>
</g>
<g>
</g>
<g>
</g>
<g>
</g>
<g>
</g>
<g>
</g>
<g>
</g>
<g>
</g>
<g>
</g>
<g>
</g>
<g>
</g>
<g>
</g>
<g>
</g>
<g>
</g>
</svg>
