<?xml version="1.0" encoding="iso-8859-1"?>
<!-- Generator: Adobe Illustrator 19.0.0, SVG Export Plug-In . SVG Version: 6.00 Build 0)  -->
<svg version="1.1" id="Layer_1" xmlns="http://www.w3.org/2000/svg" xmlns:xlink="http://www.w3.org/1999/xlink" x="0px" y="0px"
	 viewBox="0 0 512 512" style="enable-background:new 0 0 512 512;" xml:space="preserve">
<g>
	<path style="fill:#38454F;" d="M185.379,384v17.655h141.241V384H476.69V101.517c0-9.754-7.901-17.655-17.655-17.655H52.966
		c-9.754,0-17.655,7.901-17.655,17.655V384H185.379z"/>
	<path style="fill:#B0B6BB;" d="M326.621,384v17.655H185.379V384H0v26.483c0,9.754,7.901,17.655,17.655,17.655h476.69
		c9.754,0,17.655-7.901,17.655-17.655V384H326.621z"/>
	<polygon style="fill:#546A79;" points="52.966,366.345 459.034,366.345 459.034,101.517 52.966,101.517 	"/>
	<g>
		<path style="fill:#25AE88;" d="M123.586,269.241c-24.753,0-44.138-18.529-44.138-42.178c0-4.873,3.955-8.828,8.828-8.828
			c4.873,0,8.828,3.955,8.828,8.828c0,13.983,11.388,24.523,26.483,24.523c9.251,0,16.057-2.498,20.233-7.433
			c2.26-2.675,3.302-6.135,2.922-9.746c-0.406-3.884-2.401-7.486-5.491-9.878l-46.168-35.911
			c-6.859-5.341-11.308-13.356-12.209-21.99c-0.883-8.439,1.607-16.605,7-22.987c8.413-9.94,20.701-15.642,33.713-15.642
			c24.338,0,44.138,19.8,44.138,44.138c0,4.873-3.955,8.828-8.828,8.828c-4.873,0-8.828-3.955-8.828-8.828
			c0-14.601-11.882-26.483-26.483-26.483c-7.804,0-15.183,3.425-20.233,9.393c-2.26,2.675-3.302,6.135-2.922,9.754
			c0.406,3.875,2.401,7.477,5.491,9.878l46.168,35.902c6.859,5.341,11.308,13.356,12.209,21.99
			c0.883,8.448-1.607,16.614-7.009,22.987C149.61,264.642,138.275,269.241,123.586,269.241"/>
		<path style="fill:#25AE88;" d="M123.586,145.655c-4.873,0-8.828-3.955-8.828-8.828v-17.655c0-4.873,3.955-8.828,8.828-8.828
			s8.828,3.955,8.828,8.828v17.655C132.414,141.7,128.459,145.655,123.586,145.655"/>
		<path style="fill:#25AE88;" d="M123.586,286.897c-4.873,0-8.828-3.955-8.828-8.828v-15.695c0-4.873,3.955-8.828,8.828-8.828
			s8.828,3.955,8.828,8.828v15.695C132.414,282.942,128.459,286.897,123.586,286.897"/>
	</g>
	<g>
		<path style="fill:#DD691D;" d="M432.552,163.31h-70.621c-4.873,0-8.828-3.955-8.828-8.828s3.955-8.828,8.828-8.828h70.621
			c4.882,0,8.828,3.955,8.828,8.828S437.433,163.31,432.552,163.31"/>
		<path style="fill:#DD691D;" d="M432.552,216.276H300.138c-4.873,0-8.828-3.955-8.828-8.828c0-4.873,3.955-8.828,8.828-8.828
			h132.414c4.882,0,8.828,3.955,8.828,8.828C441.379,212.321,437.433,216.276,432.552,216.276"/>
		<path style="fill:#DD691D;" d="M432.552,269.241h-44.138c-4.873,0-8.828-3.955-8.828-8.828c0-4.873,3.955-8.828,8.828-8.828
			h44.138c4.882,0,8.828,3.955,8.828,8.828C441.379,265.287,437.433,269.241,432.552,269.241"/>
		<path style="fill:#DD691D;" d="M432.552,322.207h-70.621c-4.873,0-8.828-3.955-8.828-8.828s3.955-8.828,8.828-8.828h70.621
			c4.882,0,8.828,3.955,8.828,8.828S437.433,322.207,432.552,322.207"/>
	</g>
	<g>
		<path style="fill:#ECBA16;" d="M158.897,357.517H88.276c-4.873,0-8.828-3.955-8.828-8.828c0-4.873,3.955-8.828,8.828-8.828h70.621
			c4.873,0,8.828,3.955,8.828,8.828C167.724,353.562,163.769,357.517,158.897,357.517"/>
		<path style="fill:#ECBA16;" d="M203.034,357.517c-0.53,0-1.148-0.088-1.766-0.177c-0.53-0.088-1.059-0.265-1.589-0.53
			c-0.53-0.177-1.059-0.441-1.589-0.794c-0.441-0.265-0.883-0.706-1.324-1.059c-0.794-0.883-1.412-1.766-1.854-2.913
			c-0.441-1.059-0.706-2.207-0.706-3.354c0-2.295,0.971-4.59,2.56-6.268c2.472-2.472,6.444-3.178,9.622-1.854
			c1.059,0.441,2.03,1.059,2.913,1.854c0.353,0.441,0.706,0.883,1.059,1.324c0.353,0.53,0.618,1.059,0.794,1.589
			c0.265,0.53,0.441,1.059,0.53,1.589c0.088,0.618,0.177,1.236,0.177,1.766c0,1.148-0.177,2.295-0.706,3.354
			c-0.441,1.059-1.059,2.03-1.854,2.913C207.625,356.546,205.33,357.517,203.034,357.517"/>
		<path style="fill:#ECBA16;" d="M203.034,322.207h-26.483c-4.873,0-8.828-3.955-8.828-8.828s3.955-8.828,8.828-8.828h26.483
			c4.873,0,8.828,3.955,8.828,8.828S207.907,322.207,203.034,322.207"/>
		<path style="fill:#ECBA16;" d="M105.931,322.207H88.276c-4.873,0-8.828-3.955-8.828-8.828s3.955-8.828,8.828-8.828h17.655
			c4.873,0,8.828,3.955,8.828,8.828S110.804,322.207,105.931,322.207"/>
		<path style="fill:#ECBA16;" d="M141.241,322.207c-2.295,0-4.59-0.971-6.268-2.56c-1.589-1.677-2.56-3.884-2.56-6.268
			c0-1.148,0.265-2.295,0.706-3.354c0.441-1.059,1.059-2.03,1.854-2.913c2.472-2.383,6.356-3.266,9.622-1.854
			c1.059,0.441,2.03,1.059,2.913,1.854c0.794,0.883,1.412,1.854,1.854,2.913c0.441,1.059,0.706,2.207,0.706,3.354
			c0,2.295-0.971,4.59-2.56,6.268c-0.883,0.794-1.854,1.412-2.913,1.854C143.537,322.03,142.389,322.207,141.241,322.207"/>
	</g>
	<path style="fill:#DD691D;" d="M432.552,339.862c-4.882,0-8.828-3.955-8.828-8.828V136.828c0-4.873,3.946-8.828,8.828-8.828
		c4.882,0,8.828,3.955,8.828,8.828v194.207C441.379,335.907,437.433,339.862,432.552,339.862"/>
</g>
<g>
</g>
<g>
</g>
<g>
</g>
<g>
</g>
<g>
</g>
<g>
</g>
<g>
</g>
<g>
</g>
<g>
</g>
<g>
</g>
<g>
</g>
<g>
</g>
<g>
</g>
<g>
</g>
<g>
</g>
</svg>
