<?xml version="1.0" encoding="iso-8859-1"?>
<!-- Generator: Adobe Illustrator 19.0.0, SVG Export Plug-In . SVG Version: 6.00 Build 0)  -->
<svg version="1.1" id="Layer_1" xmlns="http://www.w3.org/2000/svg" xmlns:xlink="http://www.w3.org/1999/xlink" x="0px" y="0px"
	 viewBox="0 0 512 512" style="enable-background:new 0 0 512 512;" xml:space="preserve">
<g>
	<path style="fill:#67544D;" d="M308.966,70.621L308.966,70.621c-34.383-11.458-71.548-11.458-105.931,0V0
		c34.383,11.458,71.548,11.458,105.931,0V70.621z"/>
	<g>
		<path style="fill:#CCD0D2;" d="M150.069,105.931h-35.31c0-48.675,39.601-88.276,88.276-88.276v35.31
			C173.824,52.966,150.069,76.721,150.069,105.931"/>
		<path style="fill:#CCD0D2;" d="M308.966,52.966v-35.31c48.675,0,88.276,39.601,88.276,88.276h-35.31
			C361.931,76.721,338.176,52.966,308.966,52.966"/>
	</g>
	<path style="fill:#BFA380;" d="M282.483,344.276h-52.966c-9.754,0-17.655-7.901-17.655-17.655v-52.966
		c0-9.754,7.901-17.655,17.655-17.655h52.966c9.754,0,17.655,7.901,17.655,17.655v52.966
		C300.138,336.375,292.237,344.276,282.483,344.276"/>
	<g>
		<path style="fill:#724530;" d="M70.621,512h370.759c29.255,0,52.966-23.711,52.966-52.966H17.655
			C17.655,488.289,41.366,512,70.621,512"/>
		<path style="fill:#724530;" d="M459.034,105.931H52.966C23.711,105.931,0,129.642,0,158.897v88.276
			c0,29.255,23.711,52.966,52.966,52.966h158.897v-26.483c0-9.754,7.901-17.655,17.655-17.655h52.966
			c9.754,0,17.655,7.901,17.655,17.655v26.483h158.897c29.255,0,52.966-23.711,52.966-52.966v-88.276
			C512,129.642,488.289,105.931,459.034,105.931"/>
	</g>
	<path style="fill:#562F1F;" d="M494.345,459.034V286.57c-9.375,8.413-21.725,13.568-35.31,13.568H300.138v26.483
		c0,9.746-7.901,17.655-17.655,17.655h-52.966c-9.754,0-17.655-7.91-17.655-17.655v-26.483H52.966
		c-13.586,0-25.935-5.155-35.31-13.568v172.465H494.345z"/>
</g>
<g>
</g>
<g>
</g>
<g>
</g>
<g>
</g>
<g>
</g>
<g>
</g>
<g>
</g>
<g>
</g>
<g>
</g>
<g>
</g>
<g>
</g>
<g>
</g>
<g>
</g>
<g>
</g>
<g>
</g>
</svg>
