<?xml version="1.0" encoding="iso-8859-1"?>
<!-- Generator: Adobe Illustrator 19.0.0, SVG Export Plug-In . SVG Version: 6.00 Build 0)  -->
<svg version="1.1" id="Layer_1" xmlns="http://www.w3.org/2000/svg" xmlns:xlink="http://www.w3.org/1999/xlink" x="0px" y="0px"
	 viewBox="0 0 512 512" style="enable-background:new 0 0 512 512;" xml:space="preserve">
<g>
	<g>
		<path style="fill:#E6E7E8;" d="M335.448,423.724c0-48.755,39.521-88.276,88.276-88.276V52.966c0-9.754-7.901-17.655-17.655-17.655
			H17.655C7.901,35.31,0,43.211,0,52.966v441.379C0,504.09,7.901,512,17.655,512h406.069
			C374.969,512,335.448,472.479,335.448,423.724"/>
		<polygon style="fill:#E6E7E8;" points="61.793,35.31 97.103,35.31 97.103,0 61.793,0 		"/>
		<polygon style="fill:#E6E7E8;" points="326.621,35.31 361.931,35.31 361.931,0 326.621,0 		"/>
	</g>
	<path style="fill:#D75A4A;" d="M406.069,35.31H17.655C7.901,35.31,0,43.211,0,52.966v52.966h423.724V52.966
		C423.724,43.211,415.823,35.31,406.069,35.31"/>
	<g>
		<polygon style="fill:#25AE88;" points="52.966,220.69 123.586,220.69 123.586,150.069 52.966,150.069 		"/>
		<polygon style="fill:#25AE88;" points="176.552,220.69 247.172,220.69 247.172,150.069 176.552,150.069 		"/>
		<polygon style="fill:#25AE88;" points="300.138,220.69 370.759,220.69 370.759,150.069 300.138,150.069 		"/>
		<polygon style="fill:#25AE88;" points="52.966,344.276 123.586,344.276 123.586,273.655 52.966,273.655 		"/>
		<polygon style="fill:#25AE88;" points="176.552,344.276 247.172,344.276 247.172,273.655 176.552,273.655 		"/>
		<polygon style="fill:#25AE88;" points="300.138,344.276 370.759,344.276 370.759,273.655 300.138,273.655 		"/>
		<polygon style="fill:#25AE88;" points="52.966,467.862 123.586,467.862 123.586,397.241 52.966,397.241 		"/>
		<polygon style="fill:#25AE88;" points="176.552,467.862 247.172,467.862 247.172,397.241 176.552,397.241 		"/>
	</g>
	<path style="fill:#F0CE49;" d="M512,423.724c0-48.755-39.521-88.276-88.276-88.276s-88.276,39.521-88.276,88.276
		S374.969,512,423.724,512S512,472.479,512,423.724"/>
	<path style="fill:#25AE88;" d="M335.448,423.724c0-9.225,1.43-18.123,4.052-26.483h-39.362v70.621h47.219
		C339.827,454.868,335.448,439.826,335.448,423.724"/>
	<g>
		<path style="fill:#FFFFFF;" d="M423.724,432.552c-4.882,0-8.828-3.946-8.828-8.828v-52.966c0-4.882,3.946-8.828,8.828-8.828
			c4.882,0,8.828,3.946,8.828,8.828v52.966C432.552,428.606,428.606,432.552,423.724,432.552"/>
		<path style="fill:#FFFFFF;" d="M450.207,432.552h-26.483c-4.882,0-8.828-3.946-8.828-8.828c0-4.882,3.946-8.828,8.828-8.828
			h26.483c4.882,0,8.828,3.946,8.828,8.828C459.034,428.606,455.089,432.552,450.207,432.552"/>
	</g>
</g>
<g>
</g>
<g>
</g>
<g>
</g>
<g>
</g>
<g>
</g>
<g>
</g>
<g>
</g>
<g>
</g>
<g>
</g>
<g>
</g>
<g>
</g>
<g>
</g>
<g>
</g>
<g>
</g>
<g>
</g>
</svg>
