<?xml version="1.0" encoding="iso-8859-1"?>
<!-- Generator: Adobe Illustrator 19.0.0, SVG Export Plug-In . SVG Version: 6.00 Build 0)  -->
<svg version="1.1" id="Layer_1" xmlns="http://www.w3.org/2000/svg" xmlns:xlink="http://www.w3.org/1999/xlink" x="0px" y="0px"
	 viewBox="0 0 512 512" style="enable-background:new 0 0 512 512;" xml:space="preserve">
<g>
	<path style="fill:#434C6D;" d="M485.517,259.464c14.627,0,26.483-11.855,26.483-26.483s-11.855-26.483-26.483-26.483H26.483
		C11.855,206.498,0,218.353,0,232.981s11.855,26.483,26.483,26.483L2.737,433.632c-1.448,10.602,6.788,20.039,17.487,20.039h94.535
		c0-24.373,19.765-44.138,44.138-44.138s44.138,19.765,44.138,44.138h105.931c0-24.373,19.765-44.138,44.138-44.138
		s44.138,19.765,44.138,44.138h94.535c10.699,0,18.935-9.437,17.487-20.039L485.517,259.464z"/>
	<path style="fill:#7383BF;" d="M336.836,411.671L293.36,157.454c-23.261,7.592-51.465,7.592-74.726,0l-43.467,254.217
		l-17.408-2.984l47.219-276.083l10.408,4.696c23.976,10.814,57.247,10.814,81.231,0l10.408-4.696l47.219,276.083L336.836,411.671z"
		/>
	<path style="fill:#434C6D;" d="M335.448,111.728c0,29.493-35.566,53.398-79.448,53.398s-79.448-23.905-79.448-53.398
		S212.118,58.33,256,58.33S335.448,82.235,335.448,111.728"/>
</g>
<g>
</g>
<g>
</g>
<g>
</g>
<g>
</g>
<g>
</g>
<g>
</g>
<g>
</g>
<g>
</g>
<g>
</g>
<g>
</g>
<g>
</g>
<g>
</g>
<g>
</g>
<g>
</g>
<g>
</g>
</svg>
