<?xml version="1.0" encoding="iso-8859-1"?>
<!-- Generator: Adobe Illustrator 19.0.0, SVG Export Plug-In . SVG Version: 6.00 Build 0)  -->
<svg version="1.1" id="Layer_1" xmlns="http://www.w3.org/2000/svg" xmlns:xlink="http://www.w3.org/1999/xlink" x="0px" y="0px"
	 viewBox="0 0 512 512" style="enable-background:new 0 0 512 512;" xml:space="preserve">
<g>
	<path style="fill:#E6E7E8;" d="M512,256C512,114.617,397.383,0,256,0S0,114.617,0,256s114.617,256,256,256S512,397.383,512,256"/>
	<g>
		<path style="fill:#B8BDC1;" d="M219.284,29.414c-36.44,5.888-71.362,20.78-101.005,43.087c-3.902,2.931-4.679,8.466-1.748,12.359
			c1.739,2.304,4.378,3.522,7.062,3.522c1.845,0,3.708-0.583,5.305-1.774c27.348-20.586,59.586-34.33,93.193-39.759
			c4.82-0.777,8.086-5.314,7.309-10.125C228.633,31.912,224.095,28.637,219.284,29.414"/>
		<path style="fill:#B8BDC1;" d="M36.725,229.405c0.477,0.079,0.945,0.115,1.412,0.115c4.264,0,8.007-3.09,8.704-7.424
			c5.429-33.562,19.138-65.739,39.671-93.069c2.922-3.902,2.136-9.428-1.766-12.359c-3.893-2.931-9.437-2.145-12.359,1.757
			c-22.237,29.599-37.094,64.477-42.973,100.864C28.638,224.091,31.905,228.628,36.725,229.405"/>
		<path style="fill:#B8BDC1;" d="M46.853,289.923c-0.777-4.811-5.332-8.113-10.116-7.309c-4.82,0.777-8.095,5.305-7.318,10.116
			c5.888,36.44,20.789,71.362,43.087,101.005c1.739,2.304,4.378,3.513,7.062,3.513c1.845,0,3.708-0.574,5.305-1.774
			c3.893-2.931,4.67-8.466,1.739-12.359C66.036,355.768,52.282,323.547,46.853,289.923"/>
		<path style="fill:#B8BDC1;" d="M222.095,465.156c-33.562-5.42-65.739-19.138-93.069-39.662c-3.884-2.922-9.428-2.145-12.359,1.757
			c-2.922,3.893-2.145,9.428,1.757,12.359c29.599,22.237,64.486,37.102,100.864,42.982c0.468,0.071,0.945,0.106,1.412,0.106
			c4.255,0,8.007-3.081,8.704-7.424C230.181,470.47,226.915,465.932,222.095,465.156"/>
		<path style="fill:#B8BDC1;" d="M382.974,425.491c-27.33,20.524-59.507,34.242-93.069,39.662c-4.82,0.777-8.086,5.314-7.309,10.125
			c0.697,4.334,4.449,7.415,8.704,7.415c0.468,0,0.945-0.026,1.412-0.106c36.378-5.879,71.265-20.745,100.864-42.973
			c3.902-2.931,4.679-8.466,1.757-12.367C392.411,423.355,386.867,422.578,382.974,425.491"/>
		<path style="fill:#B8BDC1;" d="M475.275,282.595c-4.829-0.786-9.348,2.498-10.116,7.309
			c-5.429,33.563-19.138,65.739-39.671,93.069c-2.922,3.902-2.136,9.428,1.766,12.359c1.58,1.192,3.443,1.774,5.288,1.774
			c2.684,0,5.341-1.218,7.071-3.531c22.237-29.599,37.094-64.477,42.973-100.864C483.362,287.909,480.095,283.372,475.275,282.595"
			/>
		<path style="fill:#B8BDC1;" d="M465.156,222.112c0.697,4.334,4.449,7.424,8.704,7.424c0.468,0,0.945-0.035,1.412-0.115
			c4.811-0.777,8.095-5.305,7.318-10.116c-5.879-36.449-20.78-71.38-43.087-101.032c-2.922-3.875-8.448-4.67-12.367-1.739
			c-3.893,2.931-4.67,8.466-1.739,12.359C445.982,156.249,459.735,188.479,465.156,222.112"/>
		<path style="fill:#B8BDC1;" d="M289.905,46.844c33.615,5.429,65.845,19.182,93.202,39.759c1.589,1.201,3.452,1.774,5.297,1.774
			c2.684,0,5.332-1.218,7.062-3.513c2.931-3.902,2.154-9.437-1.739-12.367c-29.652-22.298-64.574-37.199-101.014-43.087
			c-4.837-0.777-9.34,2.507-10.116,7.318C281.819,41.53,285.085,46.068,289.905,46.844"/>
		<path style="fill:#B8BDC1;" d="M256,26.483c-4.882,0-8.828,3.946-8.828,8.828v35.204c0,4.882,3.946,8.828,8.828,8.828
			s8.828-3.946,8.828-8.828V35.31C264.828,30.429,260.882,26.483,256,26.483"/>
		<path style="fill:#B8BDC1;" d="M256,432.655c-4.882,0-8.828,3.946-8.828,8.828v35.204c0,4.882,3.946,8.828,8.828,8.828
			s8.828-3.946,8.828-8.828v-35.204C264.828,436.601,260.882,432.655,256,432.655"/>
		<path style="fill:#B8BDC1;" d="M476.69,247.172h-35.204c-4.882,0-8.828,3.946-8.828,8.828s3.946,8.828,8.828,8.828h35.204
			c4.882,0,8.828-3.946,8.828-8.828S481.571,247.172,476.69,247.172"/>
		<path style="fill:#B8BDC1;" d="M70.517,264.828c4.882,0,8.828-3.946,8.828-8.828s-3.946-8.828-8.828-8.828H35.313
			c-4.882,0-8.828,3.946-8.828,8.828s3.946,8.828,8.828,8.828H70.517z"/>
		<path style="fill:#B8BDC1;" d="M405.81,93.707L380.917,118.6c-3.452,3.452-3.452,9.039,0,12.482
			c1.721,1.73,3.981,2.586,6.241,2.586c2.26,0,4.511-0.856,6.241-2.586l24.894-24.894c3.452-3.452,3.452-9.031,0-12.482
			C414.841,90.255,409.262,90.255,405.81,93.707"/>
		<path style="fill:#B8BDC1;" d="M131.086,380.914c-3.452-3.452-9.031-3.452-12.482,0L93.71,405.808
			c-3.452,3.452-3.452,9.039,0,12.482c1.721,1.73,3.981,2.586,6.241,2.586c2.26,0,4.511-0.856,6.241-2.586l24.894-24.894
			C134.538,389.944,134.538,384.365,131.086,380.914"/>
		<path style="fill:#B8BDC1;" d="M393.397,380.914c-3.452-3.452-9.031-3.452-12.482,0c-3.452,3.452-3.452,9.031,0,12.482
			l24.894,24.894c1.73,1.73,3.981,2.586,6.241,2.586c2.26,0,4.52-0.856,6.241-2.586c3.452-3.443,3.452-9.031,0-12.482
			L393.397,380.914z"/>
		<path style="fill:#B8BDC1;" d="M118.603,131.086c1.721,1.721,3.981,2.586,6.241,2.586c2.26,0,4.52-0.865,6.241-2.586
			c3.452-3.452,3.452-9.031,0-12.482L106.191,93.71c-3.452-3.452-9.039-3.452-12.482,0c-3.452,3.443-3.452,9.031,0,12.482
			L118.603,131.086z"/>
	</g>
	<g>
		<path style="fill:#434C6D;" d="M353.103,264.828h-70.621c-4.882,0-8.828-3.946-8.828-8.828s3.946-8.828,8.828-8.828h70.621
			c4.882,0,8.828,3.946,8.828,8.828S357.985,264.828,353.103,264.828"/>
		<path style="fill:#434C6D;" d="M256,238.345c-4.882,0-8.828-3.946-8.828-8.828V123.586c0-4.882,3.946-8.828,8.828-8.828
			s8.828,3.946,8.828,8.828v105.931C264.828,234.399,260.882,238.345,256,238.345"/>
	</g>
	<path style="fill:#7383BF;" d="M282.483,256c0-14.627-11.855-26.483-26.483-26.483c-14.627,0-26.483,11.855-26.483,26.483
		c0,14.627,11.855,26.483,26.483,26.483C270.627,282.483,282.483,270.627,282.483,256"/>
	<path style="fill:none;stroke:#434C6D;stroke-width:2;stroke-linecap:round;" d="M282.483,256
		c0-14.627-11.855-26.483-26.483-26.483c-14.627,0-26.483,11.855-26.483,26.483c0,14.627,11.855,26.483,26.483,26.483
		C270.627,282.483,282.483,270.627,282.483,256L282.483,256z"/>
</g>
<g>
</g>
<g>
</g>
<g>
</g>
<g>
</g>
<g>
</g>
<g>
</g>
<g>
</g>
<g>
</g>
<g>
</g>
<g>
</g>
<g>
</g>
<g>
</g>
<g>
</g>
<g>
</g>
<g>
</g>
</svg>
