<?xml version="1.0" encoding="iso-8859-1"?>
<!-- Generator: Adobe Illustrator 19.0.0, SVG Export Plug-In . SVG Version: 6.00 Build 0)  -->
<svg version="1.1" id="Layer_1" xmlns="http://www.w3.org/2000/svg" xmlns:xlink="http://www.w3.org/1999/xlink" x="0px" y="0px"
	 viewBox="0 0 511.964 511.964" style="enable-background:new 0 0 511.964 511.964;" xml:space="preserve">
<g>
	<path style="fill:#A31C09;" d="M174.927,382.265l-86.616-51.968c-20.692-12.412-24.196-40.969-7.133-58.015L325.553,28.129
		c30.005-29.978,76.12-36.74,113.461-16.622l51.818,27.895c23.702,12.765,28.389,44.765,9.348,63.788L227.31,375.83
		C213.389,389.734,191.797,392.391,174.927,382.265"/>
	<polygon style="fill:#D9DBE8;" points="86.087,328.76 0,414.846 26.483,511.95 164.114,375.572 	"/>
	<path style="fill:#CE3929;" d="M326.622,229.465c-2.26,0-4.52-0.865-6.241-2.586c-3.452-3.452-3.452-9.031,0-12.482L452.795,81.983
		c3.452-3.452,9.031-3.452,12.482,0c3.452,3.452,3.452,9.031,0,12.482L332.864,226.879
		C331.142,228.6,328.882,229.465,326.622,229.465"/>
</g>
<g>
</g>
<g>
</g>
<g>
</g>
<g>
</g>
<g>
</g>
<g>
</g>
<g>
</g>
<g>
</g>
<g>
</g>
<g>
</g>
<g>
</g>
<g>
</g>
<g>
</g>
<g>
</g>
<g>
</g>
</svg>
