<?xml version="1.0" encoding="iso-8859-1"?>
<!-- Generator: Adobe Illustrator 19.0.0, SVG Export Plug-In . SVG Version: 6.00 Build 0)  -->
<svg version="1.1" id="Layer_1" xmlns="http://www.w3.org/2000/svg" xmlns:xlink="http://www.w3.org/1999/xlink" x="0px" y="0px"
	 viewBox="0 0 512 512" style="enable-background:new 0 0 512 512;" xml:space="preserve">
<g>
	<path style="fill:#BFA380;" d="M351.844,26.483h-34.048v52.966c0,9.754-7.91,17.655-17.655,17.655h-88.276
		c-9.754,0-17.655-7.901-17.655-17.655V26.483H168.98c-10.222,0-18.317,8.669-17.611,18.873l16.358,237.127h185.379l16.349-237.127
		C370.161,35.151,362.075,26.483,351.844,26.483"/>
	<g>
		<path style="fill:#C7CBC7;" d="M256,406.069c-4.882,0-8.828-3.955-8.828-8.828v-35.31c0-4.873,3.946-8.828,8.828-8.828
			s8.828,3.955,8.828,8.828v35.31C264.828,402.114,260.882,406.069,256,406.069"/>
		<path style="fill:#C7CBC7;" d="M123.586,459.034c-4.882,0-8.828-3.955-8.828-8.828v-17.655c0-4.873,3.946-8.828,8.828-8.828
			c4.882,0,8.828,3.955,8.828,8.828v17.655C132.414,455.08,128.468,459.034,123.586,459.034"/>
		<path style="fill:#C7CBC7;" d="M123.577,441.379c-4.017,0-7.645-2.754-8.598-6.841c-1.095-4.749,1.871-9.49,6.621-10.593
			l114.759-26.483c4.732-1.077,9.49,1.871,10.593,6.621c1.095,4.749-1.871,9.49-6.621,10.593l-114.759,26.483
			C124.902,441.309,124.231,441.379,123.577,441.379"/>
		<path style="fill:#C7CBC7;" d="M388.414,459.034c-4.882,0-8.828-3.955-8.828-8.828v-17.655c0-4.873,3.946-8.828,8.828-8.828
			c4.882,0,8.828,3.955,8.828,8.828v17.655C397.241,455.08,393.295,459.034,388.414,459.034"/>
		<path style="fill:#C7CBC7;" d="M388.423,441.379c-0.653,0-1.324-0.071-1.995-0.221l-114.759-26.483
			c-4.749-1.103-7.715-5.844-6.621-10.593c1.103-4.749,5.853-7.698,10.593-6.621L390.4,423.945
			c4.749,1.103,7.715,5.844,6.621,10.593C396.067,438.625,392.439,441.379,388.423,441.379"/>
		<path style="fill:#C7CBC7;" d="M211.862,459.034c-2.26,0-4.52-0.865-6.241-2.586c-3.452-3.452-3.452-9.031,0-12.482l26.483-26.483
			c3.452-3.452,9.031-3.452,12.482,0c3.452,3.452,3.452,9.031,0,12.482l-26.483,26.483
			C216.382,458.169,214.122,459.034,211.862,459.034"/>
		<path style="fill:#C7CBC7;" d="M300.138,459.034c-2.26,0-4.52-0.865-6.241-2.586l-26.483-26.483
			c-3.452-3.452-3.452-9.031,0-12.482c3.452-3.452,9.031-3.452,12.482,0l26.483,26.483c3.452,3.452,3.452,9.031,0,12.482
			C304.658,458.169,302.398,459.034,300.138,459.034"/>
	</g>
	<path style="fill:#9B7D5A;" d="M397.241,335.448H114.759v-35.31c0-9.754,7.901-17.655,17.655-17.655h247.172
		c9.754,0,17.655,7.901,17.655,17.655V335.448z"/>
	<path style="fill:#C7CBC7;" d="M114.759,308.966c-19.474,0-35.31-15.837-35.31-35.31V220.69c0-4.873,3.946-8.828,8.828-8.828
		c4.882,0,8.828,3.955,8.828,8.828v52.966c0,9.737,7.918,17.655,17.655,17.655c4.882,0,8.828,3.955,8.828,8.828
		C123.586,305.011,119.64,308.966,114.759,308.966"/>
	<polygon style="fill:#9B7D5A;" points="70.621,220.69 105.931,220.69 105.931,185.379 70.621,185.379 	"/>
	<path style="fill:#C7CBC7;" d="M397.241,308.966c-4.882,0-8.828-3.955-8.828-8.828c0-4.873,3.946-8.828,8.828-8.828
		c9.737,0,17.655-7.918,17.655-17.655V220.69c0-4.873,3.946-8.828,8.828-8.828c4.882,0,8.828,3.955,8.828,8.828v52.966
		C432.552,293.129,416.715,308.966,397.241,308.966"/>
	<g>
		<polygon style="fill:#9B7D5A;" points="406.069,220.69 441.379,220.69 441.379,185.379 406.069,185.379 		"/>
		<path style="fill:#9B7D5A;" d="M256,238.345c-4.882,0-8.828-3.955-8.828-8.828V97.103c0-4.873,3.946-8.828,8.828-8.828
			s8.828,3.955,8.828,8.828v132.414C264.828,234.39,260.882,238.345,256,238.345"/>
		<path style="fill:#9B7D5A;" d="M211.862,238.345c-4.882,0-8.828-3.955-8.828-8.828V97.103c0-4.873,3.946-8.828,8.828-8.828
			s8.828,3.955,8.828,8.828v132.414C220.69,234.39,216.744,238.345,211.862,238.345"/>
		<path style="fill:#9B7D5A;" d="M300.138,238.345c-4.882,0-8.828-3.955-8.828-8.828V97.103c0-4.873,3.946-8.828,8.828-8.828
			s8.828,3.955,8.828,8.828v132.414C308.966,234.39,305.02,238.345,300.138,238.345"/>
	</g>
	<g>
		<polygon style="fill:#546A79;" points="238.345,361.931 273.655,361.931 273.655,335.448 238.345,335.448 		"/>
		<polygon style="fill:#546A79;" points="238.345,423.724 273.655,423.724 273.655,397.241 238.345,397.241 		"/>
	</g>
	<g>
		<path style="fill:#38454F;" d="M150.069,481.103c0,17.064-13.833,30.897-30.897,30.897s-30.897-13.833-30.897-30.897
			c0-17.064,13.833-30.897,30.897-30.897S150.069,464.04,150.069,481.103"/>
		<path style="fill:#38454F;" d="M423.724,481.103c0,17.064-13.833,30.897-30.897,30.897c-17.064,0-30.897-13.833-30.897-30.897
			c0-17.064,13.833-30.897,30.897-30.897C409.891,450.207,423.724,464.04,423.724,481.103"/>
		<path style="fill:#38454F;" d="M238.345,481.103c0,17.064-13.833,30.897-30.897,30.897s-30.897-13.833-30.897-30.897
			c0-17.064,13.833-30.897,30.897-30.897S238.345,464.04,238.345,481.103"/>
		<path style="fill:#38454F;" d="M335.448,481.103c0,17.064-13.833,30.897-30.897,30.897s-30.897-13.833-30.897-30.897
			c0-17.064,13.833-30.897,30.897-30.897S335.448,464.04,335.448,481.103"/>
	</g>
	<path style="fill:#9B7D5A;" d="M300.138,97.103h-88.276c-9.754,0-17.655-7.901-17.655-17.655V17.655
		C194.207,7.901,202.108,0,211.862,0h88.276c9.754,0,17.655,7.901,17.655,17.655v61.793
		C317.793,89.203,309.892,97.103,300.138,97.103"/>
</g>
<g>
</g>
<g>
</g>
<g>
</g>
<g>
</g>
<g>
</g>
<g>
</g>
<g>
</g>
<g>
</g>
<g>
</g>
<g>
</g>
<g>
</g>
<g>
</g>
<g>
</g>
<g>
</g>
<g>
</g>
</svg>
