<?xml version="1.0" encoding="iso-8859-1"?>
<!-- Generator: Adobe Illustrator 19.0.0, SVG Export Plug-In . SVG Version: 6.00 Build 0)  -->
<svg version="1.1" id="Layer_1" xmlns="http://www.w3.org/2000/svg" xmlns:xlink="http://www.w3.org/1999/xlink" x="0px" y="0px"
	 viewBox="0 0 512 512" style="enable-background:new 0 0 512 512;" xml:space="preserve">
<g>
	<path style="fill:#B25B5B;" d="M353.103,512H158.897c-14.627,0-26.483-11.855-26.483-26.483V26.483
		C132.414,11.855,144.269,0,158.897,0h194.207c14.627,0,26.483,11.855,26.483,26.483v459.034
		C379.586,500.145,367.731,512,353.103,512"/>
	<path style="fill:#DB8080;" d="M353.103,476.69H158.897c-14.627,0-26.483-11.855-26.483-26.483V26.483
		C132.414,11.855,144.269,0,158.897,0h194.207c14.627,0,26.483,11.855,26.483,26.483v423.724
		C379.586,464.834,367.731,476.69,353.103,476.69"/>
	<path style="fill:#434C6D;" d="M353.103,441.379H158.897c-14.627,0-26.483-11.855-26.483-26.483V26.483
		C132.414,11.855,144.269,0,158.897,0h194.207c14.627,0,26.483,11.855,26.483,26.483v388.414
		C379.586,429.524,367.731,441.379,353.103,441.379"/>
	<polygon style="fill:#7383BF;" points="132.414,229.517 379.586,229.517 379.586,211.862 132.414,211.862 	"/>
</g>
<g>
</g>
<g>
</g>
<g>
</g>
<g>
</g>
<g>
</g>
<g>
</g>
<g>
</g>
<g>
</g>
<g>
</g>
<g>
</g>
<g>
</g>
<g>
</g>
<g>
</g>
<g>
</g>
<g>
</g>
</svg>
