<?xml version="1.0" encoding="iso-8859-1"?>
<!-- Generator: Adobe Illustrator 19.0.0, SVG Export Plug-In . SVG Version: 6.00 Build 0)  -->
<svg version="1.1" id="Layer_1" xmlns="http://www.w3.org/2000/svg" xmlns:xlink="http://www.w3.org/1999/xlink" x="0px" y="0px"
	 viewBox="0 0 512 512" style="enable-background:new 0 0 512 512;" xml:space="preserve">
<g>
	<path style="fill:#D9DBE8;" d="M344.276,512H167.724c-14.627,0-26.483-11.855-26.483-26.483V273.655
		c0-14.627,11.855-26.483,26.483-26.483h176.552c14.627,0,26.483,11.855,26.483,26.483v211.862
		C370.759,500.145,358.903,512,344.276,512"/>
	<polygon style="fill:#B1B5C9;" points="185.379,247.172 326.621,247.172 326.621,167.724 185.379,167.724 	"/>
	<polygon style="fill:#D9DBE8;" points="300.138,167.724 211.862,167.724 256,0 	"/>
	<polygon style="fill:#ECE8D8;" points="229.517,432.552 370.759,432.552 370.759,326.621 229.517,326.621 	"/>
	<g>
		<polygon style="fill:#C9B693;" points="264.828,370.759 370.759,370.759 370.759,353.103 264.828,353.103 		"/>
		<polygon style="fill:#C9B693;" points="264.828,406.069 370.759,406.069 370.759,388.414 264.828,388.414 		"/>
	</g>
</g>
<g>
</g>
<g>
</g>
<g>
</g>
<g>
</g>
<g>
</g>
<g>
</g>
<g>
</g>
<g>
</g>
<g>
</g>
<g>
</g>
<g>
</g>
<g>
</g>
<g>
</g>
<g>
</g>
<g>
</g>
</svg>
