<?xml version="1.0" encoding="iso-8859-1"?>
<!-- Generator: Adobe Illustrator 19.0.0, SVG Export Plug-In . SVG Version: 6.00 Build 0)  -->
<svg version="1.1" id="Layer_1" xmlns="http://www.w3.org/2000/svg" xmlns:xlink="http://www.w3.org/1999/xlink" x="0px" y="0px"
	 viewBox="0 0 512 512" style="enable-background:new 0 0 512 512;" xml:space="preserve">
<g>
	<path style="fill:#434C6D;" d="M414.897,52.966H282.483v26.483h-52.966V52.966H97.103c-9.754,0-17.655,7.901-17.655,17.655v423.724
		c0,9.754,7.901,17.655,17.655,17.655h317.793c9.754,0,17.655-7.901,17.655-17.655V70.621
		C432.552,60.866,424.651,52.966,414.897,52.966"/>
	<g>
		<path style="fill:#939FBC;" d="M256,158.897c-9.737,0-17.655,7.918-17.655,17.655s7.918,17.655,17.655,17.655
			c9.737,0,17.655-7.918,17.655-17.655S265.737,158.897,256,158.897 M256,211.862c-19.474,0-35.31-15.837-35.31-35.31
			s15.837-35.31,35.31-35.31s35.31,15.837,35.31,35.31S275.474,211.862,256,211.862"/>
		<path style="fill:#939FBC;" d="M256,123.586c-48.675,0-88.276,39.601-88.276,88.276s39.601,88.276,88.276,88.276
			s88.276-39.601,88.276-88.276S304.675,123.586,256,123.586 M256,317.793c-58.412,0-105.931-47.519-105.931-105.931
			S197.588,105.931,256,105.931s105.931,47.519,105.931,105.931S314.412,317.793,256,317.793"/>
		<path style="fill:#939FBC;" d="M247.172,370.759h-52.966c-4.882,0-8.828-3.946-8.828-8.828c0-4.882,3.946-8.828,8.828-8.828
			h52.966c4.873,0,8.828,3.946,8.828,8.828C256,366.813,252.045,370.759,247.172,370.759"/>
		<path style="fill:#939FBC;" d="M158.901,370.759h-26.483c-4.882,0-8.828-3.946-8.828-8.828c0-4.882,3.946-8.828,8.828-8.828
			h26.483c4.873,0,8.828,3.946,8.828,8.828C167.729,366.813,163.774,370.759,158.901,370.759"/>
		<path style="fill:#939FBC;" d="M326.621,370.759h-44.138c-4.873,0-8.828-3.946-8.828-8.828c0-4.882,3.955-8.828,8.828-8.828
			h44.138c4.873,0,8.828,3.946,8.828,8.828C335.448,366.813,331.494,370.759,326.621,370.759"/>
		<path style="fill:#939FBC;" d="M379.586,370.759h-17.655c-4.873,0-8.828-3.946-8.828-8.828c0-4.882,3.955-8.828,8.828-8.828
			h17.655c4.873,0,8.828,3.946,8.828,8.828C388.414,366.813,384.459,370.759,379.586,370.759"/>
		<path style="fill:#939FBC;" d="M203.034,423.724h-70.621c-4.873,0-8.828-3.946-8.828-8.828c0-4.882,3.955-8.828,8.828-8.828
			h70.621c4.873,0,8.828,3.946,8.828,8.828C211.862,419.778,207.907,423.724,203.034,423.724"/>
		<path style="fill:#939FBC;" d="M379.586,423.724h-35.31c-4.873,0-8.828-3.946-8.828-8.828c0-4.882,3.955-8.828,8.828-8.828h35.31
			c4.873,0,8.828,3.946,8.828,8.828C388.414,419.778,384.459,423.724,379.586,423.724"/>
		<path style="fill:#939FBC;" d="M308.966,423.724h-70.621c-4.873,0-8.828-3.946-8.828-8.828c0-4.882,3.955-8.828,8.828-8.828
			h70.621c4.873,0,8.828,3.946,8.828,8.828C317.793,419.778,313.838,423.724,308.966,423.724"/>
		<path style="fill:#939FBC;" d="M220.69,476.69h-88.276c-4.873,0-8.828-3.946-8.828-8.828c0-4.882,3.955-8.828,8.828-8.828h88.276
			c4.873,0,8.828,3.946,8.828,8.828C229.517,472.744,225.562,476.69,220.69,476.69"/>
		<path style="fill:#939FBC;" d="M282.483,476.69H256c-4.873,0-8.828-3.946-8.828-8.828c0-4.882,3.955-8.828,8.828-8.828h26.483
			c4.873,0,8.828,3.946,8.828,8.828C291.31,472.744,287.356,476.69,282.483,476.69"/>
		<path style="fill:#939FBC;" d="M379.586,476.69h-61.793c-4.873,0-8.828-3.946-8.828-8.828c0-4.882,3.955-8.828,8.828-8.828h61.793
			c4.873,0,8.828,3.946,8.828,8.828C388.414,472.744,384.459,476.69,379.586,476.69"/>
	</g>
	<polygon style="fill:#6D7AA0;" points="229.517,79.448 282.483,79.448 282.483,26.483 229.517,26.483 	"/>
	<g>
		<path style="fill:#939FBC;" d="M282.483,26.483C282.483,11.855,270.627,0,256,0c-14.627,0-26.483,11.855-26.483,26.483H282.483z"
			/>
		<path style="fill:#939FBC;" d="M300.138,298.276h0.088H300.138z M220.69,292.706c22.404,9.86,48.216,9.86,70.621,0v-45.533
			c0-19.474-15.837-35.31-35.31-35.31s-35.31,15.837-35.31,35.31V292.706z M256,317.794c-16.843,0-33.05-3.919-48.163-11.652
			c-2.948-1.518-4.802-4.555-4.802-7.865v-51.103c0-29.21,23.755-52.966,52.966-52.966s52.966,23.755,52.966,52.966v51.103
			c0,3.31-1.854,6.347-4.802,7.865C289.05,313.875,272.843,317.794,256,317.794L256,317.794z"/>
	</g>
</g>
<g>
</g>
<g>
</g>
<g>
</g>
<g>
</g>
<g>
</g>
<g>
</g>
<g>
</g>
<g>
</g>
<g>
</g>
<g>
</g>
<g>
</g>
<g>
</g>
<g>
</g>
<g>
</g>
<g>
</g>
</svg>
