<?xml version="1.0" encoding="iso-8859-1"?>
<!-- Generator: Adobe Illustrator 19.0.0, SVG Export Plug-In . SVG Version: 6.00 Build 0)  -->
<svg version="1.1" id="Layer_1" xmlns="http://www.w3.org/2000/svg" xmlns:xlink="http://www.w3.org/1999/xlink" x="0px" y="0px"
	 viewBox="0 0 505.829 505.829" style="enable-background:new 0 0 505.829 505.829;" xml:space="preserve">
<g>
	<g>
		<path style="fill:#B0B6BB;" d="M235.26,248.499c0-40.686,21.23-76.332,53.151-96.715c-52.118-2.11-104.369,0.282-156.151,7.424
			L26.284,173.827C9.935,176.078-1.638,190.943,0.19,207.345l12.632,113.726c0.998,8.942,8.554,15.704,17.549,15.704h222.543h23.799
			C251.396,315.721,235.26,284.004,235.26,248.499"/>
		<path style="fill:#B0B6BB;" d="M479.547,173.827l-48.64-6.709c20.913,20.789,33.871,49.567,33.871,81.382
			c0,35.505-16.137,67.222-41.454,88.276h52.136c8.995,0,16.552-6.762,17.549-15.704l12.632-113.726
			C507.46,190.944,495.887,176.079,479.547,173.827"/>
	</g>
	<path style="fill:#283238;" d="M464.777,248.499c0-63.382-51.377-114.759-114.759-114.759S235.26,185.117,235.26,248.499
		s51.377,114.759,114.759,114.759S464.777,311.881,464.777,248.499"/>
	<path style="fill:#38454F;" d="M350.018,319.12c-38.938,0-70.621-31.673-70.621-70.621s31.682-70.621,70.621-70.621
		s70.621,31.673,70.621,70.621S388.957,319.12,350.018,319.12"/>
	<path style="fill:#546A79;" d="M314.708,257.327c-4.873,0-8.828-3.946-8.828-8.828c0-24.338,19.8-44.138,44.138-44.138
		c4.873,0,8.828,3.946,8.828,8.828s-3.955,8.828-8.828,8.828c-14.601,0-26.483,11.882-26.483,26.483
		C323.535,253.381,319.581,257.327,314.708,257.327"/>
	<g>
		<path style="fill:#CBD4D8;" d="M173.466,222.016H67.535c-4.873,0-8.828-3.946-8.828-8.828s3.955-8.828,8.828-8.828h105.931
			c4.873,0,8.828,3.946,8.828,8.828S178.339,222.016,173.466,222.016"/>
		<path style="fill:#CBD4D8;" d="M173.466,257.327H67.535c-4.873,0-8.828-3.946-8.828-8.828c0-4.882,3.955-8.828,8.828-8.828
			h105.931c4.873,0,8.828,3.946,8.828,8.828C182.294,253.381,178.339,257.327,173.466,257.327"/>
		<path style="fill:#CBD4D8;" d="M173.466,292.637H67.535c-4.873,0-8.828-3.946-8.828-8.828s3.955-8.828,8.828-8.828h105.931
			c4.873,0,8.828,3.946,8.828,8.828S178.339,292.637,173.466,292.637"/>
	</g>
	<g>
		<path style="fill:#546A79;" d="M85.191,372.085L85.191,372.085c-10.823,0-20.71-6.118-25.547-15.793l-9.763-19.518h70.621
			l-9.763,19.518C105.9,365.968,96.013,372.085,85.191,372.085"/>
		<path style="fill:#546A79;" d="M394.158,354.434l0.927,1.863c4.846,9.675,14.733,15.793,25.556,15.793
			c10.823,0,20.71-6.118,25.547-15.793l9.763-19.518h-32.627C414.594,344.026,404.777,350.002,394.158,354.434"/>
	</g>
</g>
<g>
</g>
<g>
</g>
<g>
</g>
<g>
</g>
<g>
</g>
<g>
</g>
<g>
</g>
<g>
</g>
<g>
</g>
<g>
</g>
<g>
</g>
<g>
</g>
<g>
</g>
<g>
</g>
<g>
</g>
</svg>
