<?xml version="1.0" encoding="iso-8859-1"?>
<!-- Generator: Adobe Illustrator 19.0.0, SVG Export Plug-In . SVG Version: 6.00 Build 0)  -->
<svg version="1.1" id="Layer_1" xmlns="http://www.w3.org/2000/svg" xmlns:xlink="http://www.w3.org/1999/xlink" x="0px" y="0px"
	 viewBox="0 0 511.85 511.85" style="enable-background:new 0 0 511.85 511.85;" xml:space="preserve">
<g>
	<polygon style="fill:#E39700;" points="74.907,511.85 0.004,436.948 436.943,0 511.846,74.911 	"/>
	<g>
		<path style="fill:#EFB754;" d="M449.429,99.874c10.346-10.346,10.346-27.11,0-37.455c-10.346-10.337-27.11-10.337-37.455,0
			c-10.337,10.346-10.337,27.11,0,37.455C422.32,110.22,439.083,110.22,449.429,99.874"/>
		<polygon style="fill:#EFB754;" points="424.46,162.297 405.737,143.574 418.219,131.091 436.943,149.815 		"/>
		<polygon style="fill:#EFB754;" points="399.495,187.262 380.772,168.539 393.254,156.057 411.977,174.78 		"/>
		<polygon style="fill:#EFB754;" points="374.529,212.228 355.797,193.504 368.279,181.022 387.011,199.745 		"/>
		<polygon style="fill:#EFB754;" points="349.555,237.202 330.831,218.47 343.314,205.987 362.037,224.719 		"/>
		<polygon style="fill:#EFB754;" points="324.589,262.167 287.134,224.72 299.616,212.238 337.072,249.685 		"/>
		<polygon style="fill:#EFB754;" points="299.624,287.133 280.892,268.41 293.374,255.928 312.106,274.651 		"/>
		<polygon style="fill:#EFB754;" points="274.65,312.107 255.927,293.375 268.409,280.893 287.132,299.625 		"/>
		<polygon style="fill:#EFB754;" points="249.685,337.073 230.961,318.349 243.444,305.867 262.167,324.59 		"/>
		<polygon style="fill:#EFB754;" points="224.719,362.038 205.986,343.315 218.469,330.832 237.201,349.556 		"/>
		<polygon style="fill:#EFB754;" points="199.744,387.012 162.298,349.557 174.78,337.074 212.227,374.53 		"/>
		<polygon style="fill:#EFB754;" points="174.779,411.977 156.056,393.254 168.538,380.772 187.261,399.495 		"/>
		<polygon style="fill:#EFB754;" points="149.814,436.943 131.091,418.22 143.573,405.738 162.296,424.461 		"/>
		<polygon style="fill:#EFB754;" points="124.84,461.909 106.116,443.185 118.599,430.703 137.322,449.427 		"/>
		<polygon style="fill:#EFB754;" points="99.874,486.883 81.151,468.16 93.633,455.677 112.357,474.401 		"/>
	</g>
</g>
<g>
</g>
<g>
</g>
<g>
</g>
<g>
</g>
<g>
</g>
<g>
</g>
<g>
</g>
<g>
</g>
<g>
</g>
<g>
</g>
<g>
</g>
<g>
</g>
<g>
</g>
<g>
</g>
<g>
</g>
</svg>
