<?xml version="1.0" encoding="iso-8859-1"?>
<!-- Generator: Adobe Illustrator 19.0.0, SVG Export Plug-In . SVG Version: 6.00 Build 0)  -->
<svg version="1.1" id="Layer_1" xmlns="http://www.w3.org/2000/svg" xmlns:xlink="http://www.w3.org/1999/xlink" x="0px" y="0px"
	 viewBox="0 0 512.004 512.004" style="enable-background:new 0 0 512.004 512.004;" xml:space="preserve">
<g>
	<path style="fill:#E02B22;" d="M326.501,79.45c-16.11,21.407-41.649,35.31-70.497,35.31c-28.857,0-54.396-13.903-70.506-35.31
		H44.141c-24.382,0-44.138,19.765-44.138,44.138v264.828c0,24.373,19.756,44.138,44.138,44.138h141.356
		c16.11-21.407,41.649-35.31,70.506-35.31c28.849,0,54.387,13.903,70.497,35.31h141.365c24.373,0,44.138-19.765,44.138-44.138
		V123.588c0-24.373-19.765-44.138-44.138-44.138H326.501z"/>
	<path style="fill:#E6E7E8;" d="M344.276,158.898H0v123.586h437.628c2.392-8.43,3.752-17.293,3.752-26.483
		C441.379,202.374,397.903,158.898,344.276,158.898"/>
	<g>
		<path style="fill:#C0C2C4;" d="M437.628,282.485H0.001v70.621h344.276C388.715,353.105,426.091,323.224,437.628,282.485"/>
		<path style="fill:#C0C2C4;" d="M220.69,220.691c0-14.627-11.855-26.483-26.483-26.483s-26.483,11.855-26.483,26.483
			s11.855,26.483,26.483,26.483S220.69,235.319,220.69,220.691"/>
	</g>
</g>
<g>
</g>
<g>
</g>
<g>
</g>
<g>
</g>
<g>
</g>
<g>
</g>
<g>
</g>
<g>
</g>
<g>
</g>
<g>
</g>
<g>
</g>
<g>
</g>
<g>
</g>
<g>
</g>
<g>
</g>
</svg>
