<?xml version="1.0" encoding="iso-8859-1"?>
<!-- Generator: Adobe Illustrator 19.0.0, SVG Export Plug-In . SVG Version: 6.00 Build 0)  -->
<svg version="1.1" id="Layer_1" xmlns="http://www.w3.org/2000/svg" xmlns:xlink="http://www.w3.org/1999/xlink" x="0px" y="0px"
	 viewBox="0 0 512.004 512.004" style="enable-background:new 0 0 512.004 512.004;" xml:space="preserve">
<g>
	<path style="fill:#434C6D;" d="M512.004,322.209c0-48.755-39.521-88.276-88.276-88.276s-88.276,39.521-88.276,88.276
		s39.521,88.276,88.276,88.276S512.004,370.964,512.004,322.209"/>
	<g>
		<path style="fill:#7383BF;" d="M423.728,375.175c-29.21,0-52.966-23.755-52.966-52.966s23.755-52.966,52.966-52.966
			c29.21,0,52.966,23.755,52.966,52.966S452.938,375.175,423.728,375.175"/>
		<path style="fill:#7383BF;" d="M342.846,357.52H44.138L0,410.485h423.724C387.54,410.485,356.476,388.681,342.846,357.52"/>
		<path style="fill:#7383BF;" d="M417.364,234.255L166.669,111.666c-56.311-23.464-121.362-5.208-157.237,44.129
			c-6.126,8.422-9.428,18.564-9.428,28.981c0,24.514,18.017,45.303,42.284,48.772l303.334,47.581
			C359.473,254.858,386.167,236.488,417.364,234.255"/>
	</g>
	<path style="fill:#D9DBE8;" d="M345.625,281.132L44.789,233.931h-0.644v70.621h293.076c1.766-8.686,4.89-16.87,9.013-24.417
		C346.048,280.479,345.81,280.788,345.625,281.132"/>
	<g>
		<path style="fill:#434C6D;" d="M441.383,348.692c-2.26,0-4.52-0.865-6.241-2.586l-35.31-35.31c-3.452-3.452-3.452-9.031,0-12.482
			c3.452-3.452,9.031-3.452,12.482,0l35.31,35.31c3.452,3.452,3.452,9.031,0,12.482
			C445.903,347.827,443.643,348.692,441.383,348.692"/>
		<path style="fill:#434C6D;" d="M406.073,348.692c-2.26,0-4.52-0.865-6.241-2.586c-3.452-3.452-3.452-9.031,0-12.482l35.31-35.31
			c3.452-3.452,9.031-3.452,12.482,0c3.452,3.452,3.452,9.031,0,12.482l-35.31,35.31
			C410.592,347.827,408.332,348.692,406.073,348.692"/>
	</g>
</g>
<g>
</g>
<g>
</g>
<g>
</g>
<g>
</g>
<g>
</g>
<g>
</g>
<g>
</g>
<g>
</g>
<g>
</g>
<g>
</g>
<g>
</g>
<g>
</g>
<g>
</g>
<g>
</g>
<g>
</g>
</svg>
