<?xml version="1.0" encoding="iso-8859-1"?>
<!-- Generator: Adobe Illustrator 19.0.0, SVG Export Plug-In . SVG Version: 6.00 Build 0)  -->
<svg version="1.1" id="Layer_1" xmlns="http://www.w3.org/2000/svg" xmlns:xlink="http://www.w3.org/1999/xlink" x="0px" y="0px"
	 viewBox="0 0 511.996 511.996" style="enable-background:new 0 0 511.996 511.996;" xml:space="preserve">
<g>
	<path style="fill:#A31C09;" d="M511.996,348.685c0-48.755-39.521-88.276-88.276-88.276s-88.276,39.521-88.276,88.276
		s39.521,88.276,88.276,88.276S511.996,397.44,511.996,348.685"/>
	<g>
		<path style="fill:#D9DBE8;" d="M394.414,265.495L170.476,124.916c-18.088-11.352-25.106-33.66-17.858-52.904l-37.862-23.464
			L20.619,197.602c25.935-41.322,80.366-53.769,121.697-27.825l207.695,130.383C360.534,284.219,376.088,271.948,394.414,265.495"/>
		<path style="fill:#D9DBE8;" d="M335.89,357.512H88.276C39.477,357.512,0,318.027,0,269.237v176.552h45.021
			c4.096-20.145,21.901-35.31,43.255-35.31h264.828c2.895,0,5.711,0.327,8.457,0.865
			C347.401,397.289,337.973,378.487,335.89,357.512"/>
	</g>
	<g>
		<path style="fill:#CE3929;" d="M423.72,260.409c7.406,0,14.557,1.015,21.425,2.728c4.008-3.09,7.627-6.797,10.478-11.335
			c2.586-4.131,1.342-9.578-2.79-12.164L168.726,61.285c-4.122-2.595-9.578-1.351-12.164,2.781
			c-12.959,20.648-6.735,47.89,13.912,60.849l223.938,140.579C403.593,262.263,413.427,260.409,423.72,260.409"/>
		<path style="fill:#CE3929;" d="M361.546,411.329c-2.737-0.53-5.553-0.847-8.448-0.847H88.271
			c-24.373,0-44.138,19.756-44.138,44.138c0,4.873,3.955,8.828,8.828,8.828h335.448c4.873,0,8.828-3.955,8.828-8.828
			c0-9.039-2.737-17.426-7.398-24.417C379.192,425.771,369.606,419.327,361.546,411.329"/>
		<path style="fill:#CE3929;" d="M423.72,401.65c-29.21,0-52.966-23.755-52.966-52.966s23.755-52.966,52.966-52.966
			c29.21,0,52.966,23.755,52.966,52.966S452.93,401.65,423.72,401.65"/>
	</g>
	<g>
		<path style="fill:#A31C09;" d="M441.375,375.168c-2.26,0-4.52-0.865-6.241-2.586l-35.31-35.31c-3.452-3.452-3.452-9.031,0-12.482
			c3.452-3.452,9.031-3.452,12.482,0l35.31,35.31c3.452,3.452,3.452,9.031,0,12.482
			C445.895,374.302,443.635,375.168,441.375,375.168"/>
		<path style="fill:#A31C09;" d="M406.065,375.168c-2.26,0-4.52-0.865-6.241-2.586c-3.452-3.452-3.452-9.031,0-12.482l35.31-35.31
			c3.452-3.452,9.031-3.452,12.482,0c3.452,3.452,3.452,9.031,0,12.482l-35.31,35.31
			C410.584,374.302,408.324,375.168,406.065,375.168"/>
	</g>
</g>
<g>
</g>
<g>
</g>
<g>
</g>
<g>
</g>
<g>
</g>
<g>
</g>
<g>
</g>
<g>
</g>
<g>
</g>
<g>
</g>
<g>
</g>
<g>
</g>
<g>
</g>
<g>
</g>
<g>
</g>
</svg>
