<?xml version="1.0" encoding="iso-8859-1"?>
<!-- Generator: Adobe Illustrator 19.0.0, SVG Export Plug-In . SVG Version: 6.00 Build 0)  -->
<svg version="1.1" id="Layer_1" xmlns="http://www.w3.org/2000/svg" xmlns:xlink="http://www.w3.org/1999/xlink" x="0px" y="0px"
	 viewBox="0 0 512 512" style="enable-background:new 0 0 512 512;" xml:space="preserve">
<g>
	<path style="fill:#E39700;" d="M512,454.621H0l9.137-45.7c4.952-24.753,26.695-42.575,51.942-42.575h389.844
		c25.247,0,46.989,17.823,51.941,42.575L512,454.621z"/>
	<polygon style="fill:#EFB754;" points="0,454.621 512,454.621 503.172,410.483 8.828,410.483 	"/>
	<path style="fill:#E39700;" d="M234.406,198.937l-22.546-22.546c-12.712-12.712-29.422-20.621-47.307-22.404
		c-27.242-5.544-54.969-8.333-82.767-8.333H70.619H57.731c-15.51,0-30.861-3.151-45.118-9.26
		c-13.85-5.932-16.543-24.399-4.97-34.048l5.438-4.529c14.716-12.262,31.391-21.963,49.329-28.69l10.108-3.787
		c21.839-8.192,45.533-10.108,68.414-5.535l213.469,42.699c39.989,7.998,78.142,23.322,112.543,45.215l11.467,7.3
		c20.921,13.312,33.589,36.387,33.589,61.193V289.5c0,10.664-8.642,19.306-19.297,19.306h-16.013l-85.442-12.209
		C327.581,287.505,270.661,252.062,234.406,198.937L234.406,198.937z"/>
	<g>
		<path style="fill:#EFB754;" d="M234.406,198.937L234.406,198.937l-2.71-2.71C163.6,221.501,84.39,307.331,70.619,366.344h132.414
			l44.138-44.138h97.103c14.636,0,26.483-11.847,26.483-26.483l-4.502-4.158C312.813,277.732,265.841,245,234.406,198.937"/>
		<path style="fill:#EFB754;" d="M423.724,269.241c-29.21,0-52.966-23.755-52.966-52.966s23.755-52.966,52.966-52.966
			c29.21,0,52.966,23.755,52.966,52.966S452.935,269.241,423.724,269.241"/>
	</g>
	<g>
		<path style="fill:#E39700;" d="M441.379,242.758c-2.26,0-4.52-0.865-6.241-2.586l-35.31-35.31c-3.452-3.452-3.452-9.031,0-12.482
			s9.031-3.452,12.482,0l35.31,35.31c3.452,3.452,3.452,9.031,0,12.482C445.899,241.893,443.639,242.758,441.379,242.758"/>
		<path style="fill:#E39700;" d="M406.069,242.758c-2.26,0-4.52-0.865-6.241-2.586c-3.452-3.452-3.452-9.031,0-12.482l35.31-35.31
			c3.452-3.452,9.031-3.452,12.482,0s3.452,9.031,0,12.482l-35.31,35.31C410.589,241.893,408.329,242.758,406.069,242.758"/>
	</g>
</g>
<g>
</g>
<g>
</g>
<g>
</g>
<g>
</g>
<g>
</g>
<g>
</g>
<g>
</g>
<g>
</g>
<g>
</g>
<g>
</g>
<g>
</g>
<g>
</g>
<g>
</g>
<g>
</g>
<g>
</g>
</svg>
