<?xml version="1.0" encoding="iso-8859-1"?>
<!-- Generator: Adobe Illustrator 19.0.0, SVG Export Plug-In . SVG Version: 6.00 Build 0)  -->
<svg version="1.1" id="Layer_1" xmlns="http://www.w3.org/2000/svg" xmlns:xlink="http://www.w3.org/1999/xlink" x="0px" y="0px"
	 viewBox="0 0 512 512" style="enable-background:new 0 0 512 512;" xml:space="preserve">
<g>
	<path style="fill:#A31C09;" d="M494.345,459.034H17.655C7.901,459.034,0,451.134,0,441.379v-35.31
		c0-9.754,7.901-17.655,17.655-17.655h476.69c9.754,0,17.655,7.901,17.655,17.655v35.31
		C512,451.134,504.099,459.034,494.345,459.034"/>
	<g>
		<polygon style="fill:#CE3929;" points="44.138,388.414 79.448,388.414 79.448,353.103 44.138,353.103 		"/>
		<polygon style="fill:#CE3929;" points="432.552,388.414 467.862,388.414 467.862,353.103 432.552,353.103 		"/>
	</g>
	<path style="fill:#A31C09;" d="M35.31,52.966c-14.627,0-26.483,11.855-26.483,26.483v97.103v167.724
		c0,4.873,3.955,8.828,8.828,8.828h88.276c4.873,0,8.828-3.955,8.828-8.828V211.862h282.483v132.414
		c0,4.873,3.955,8.828,8.828,8.828h88.276c4.873,0,8.828-3.955,8.828-8.828V176.552V79.448c0-14.627-11.855-26.483-26.483-26.483
		H35.31z"/>
	<polygon style="fill:#CE3929;" points="114.759,317.793 397.241,317.793 397.241,211.862 114.759,211.862 	"/>
</g>
<g>
</g>
<g>
</g>
<g>
</g>
<g>
</g>
<g>
</g>
<g>
</g>
<g>
</g>
<g>
</g>
<g>
</g>
<g>
</g>
<g>
</g>
<g>
</g>
<g>
</g>
<g>
</g>
<g>
</g>
</svg>
