<?xml version="1.0" encoding="iso-8859-1"?>
<!-- Generator: Adobe Illustrator 19.0.0, SVG Export Plug-In . SVG Version: 6.00 Build 0)  -->
<svg version="1.1" id="Layer_1" xmlns="http://www.w3.org/2000/svg" xmlns:xlink="http://www.w3.org/1999/xlink" x="0px" y="0px"
	 viewBox="0 0 512 512" style="enable-background:new 0 0 512 512;" xml:space="preserve">
<g>
	<path style="fill:#C9B693;" d="M52.975,228.271c-3.151,0-6.206-1.695-7.804-4.67c-2.295-4.308-0.662-9.657,3.637-11.953
		L278.326,89.307c4.334-2.278,9.649-0.653,11.953,3.637c2.295,4.299,0.662,9.657-3.637,11.944L57.124,227.238
		C55.791,227.935,54.37,228.271,52.975,228.271"/>
	<path style="fill:#7383BF;" d="M397.241,203.034c-14.274,0-26.183,10.514-28.381,24.62
		c-11.829,76.067-77.612,134.276-156.999,134.276c-87.755,0-158.897-71.142-158.897-158.897H0v141.241
		c0,58.5,47.431,105.931,105.931,105.931h300.138c58.5,0,105.931-47.431,105.931-105.931V231.724c0-15.846-12.844-28.69-28.69-28.69
		H397.241z"/>
	<path style="fill:#ECE8D8;" d="M301.198,334.301c35.513-24.214,60.778-62.349,67.663-106.646
		c2.198-14.106,14.106-24.62,28.381-24.62h86.069c3.875,0,7.556,0.786,10.929,2.18c0.009-0.733,0.106-1.448,0.106-2.18
		c0-78.009-63.232-141.241-141.241-141.241s-141.241,63.232-141.241,141.241C211.863,262.691,248.903,313.6,301.198,334.301"/>
	<path style="fill:#C9B693;" d="M353.104,273.655c0.335,0,0.662-0.044,0.997-0.053c7.089-14.257,12.226-29.652,14.76-45.948
		c2.198-14.106,14.106-24.62,28.381-24.62h26.483c0-39-31.62-70.621-70.621-70.621s-70.621,31.62-70.621,70.621
		S314.104,273.655,353.104,273.655"/>
</g>
<g>
</g>
<g>
</g>
<g>
</g>
<g>
</g>
<g>
</g>
<g>
</g>
<g>
</g>
<g>
</g>
<g>
</g>
<g>
</g>
<g>
</g>
<g>
</g>
<g>
</g>
<g>
</g>
<g>
</g>
</svg>
